<?xml version="1.0" encoding="UTF-8" standalone="no"?>
<svg
   xmlns:dc="http://purl.org/dc/elements/1.1/"
   xmlns:cc="http://creativecommons.org/ns#"
   xmlns:rdf="http://www.w3.org/1999/02/22-rdf-syntax-ns#"
   xmlns:svg="http://www.w3.org/2000/svg"
   xmlns="http://www.w3.org/2000/svg"
   xmlns:sodipodi="http://sodipodi.sourceforge.net/DTD/sodipodi-0.dtd"
   xmlns:inkscape="http://www.inkscape.org/namespaces/inkscape"
   width="601"
   height="284"
   viewBox="0 0 601 284"
   version="1.1"
   id="svg4686"
   sodipodi:docname="CSIRO-Data61-reversed-green-hex.svg"
   inkscape:version="0.92.2 (5c3e80d, 2017-08-06)">
  <metadata
     id="metadata4692">
    <rdf:RDF>
      <cc:Work
         rdf:about="">
        <dc:format>image/svg+xml</dc:format>
        <dc:type
           rdf:resource="http://purl.org/dc/dcmitype/StillImage" />
        <dc:title></dc:title>
      </cc:Work>
    </rdf:RDF>
  </metadata>
  <defs
     id="defs4690" />
  <sodipodi:namedview
     pagecolor="#1a1919"
     bordercolor="#666666"
     borderopacity="1"
     objecttolerance="10"
     gridtolerance="10"
     guidetolerance="10"
     inkscape:pageopacity="0"
     inkscape:pageshadow="2"
     inkscape:window-width="1914"
     inkscape:window-height="1172"
     id="namedview4688"
     showgrid="false"
     inkscape:zoom="1.6742312"
     inkscape:cx="236.41841"
     inkscape:cy="159.90486"
     inkscape:window-x="0"
     inkscape:window-y="22"
     inkscape:window-maximized="0"
     inkscape:current-layer="svg4686" />
  <path
     style="fill:#ffffff;fill-rule:evenodd;fill-opacity:1"
     inkscape:connector-curvature="0"
     d="m 418.28,123.662 c 0,2.825 -1.727,4.551 -4.553,4.551 h -16.72 V 86.139 h 16.72 c 2.826,0 4.553,1.727 4.553,4.553 z m -3.218,-42.626 h -22.148 c -0.774,0 -1.402,0.627 -1.402,1.402 v 49.476 c 0,0.774 0.628,1.402 1.402,1.402 h 22.148 c 5.023,0 8.712,-3.691 8.712,-8.712 V 89.75 c 0,-5.1 -3.689,-8.714 -8.712,-8.714 z m 30.572,70.086 h -16.765 c -0.774,0 -1.402,0.628 -1.402,1.401 v 5.441 c 0,0.774 0.628,1.401 1.402,1.401 h 9.139 V 202 c 0,0.774 0.628,1.402 1.402,1.402 h 6.224 c 0.774,0 1.401,-0.628 1.401,-1.402 v -49.477 c 0,-0.773 -0.627,-1.401 -1.401,-1.401 m -32.221,41.997 c 0,1.177 -0.942,2.042 -2.12,2.042 h -8.634 c -1.178,0 -2.12,-0.865 -2.12,-2.042 v -6.986 c 0,-1.178 0.628,-2.12 2.12,-2.591 1.883,-0.629 6.672,-1.572 8.634,-1.572 1.334,0 2.12,0.866 2.12,2.043 z m 0.706,-19.701 c -3.847,0 -9.341,0.942 -13.58,2.275 v -14.288 c 0,-1.178 0.942,-2.04 2.12,-2.04 h 15.105 c 0.774,0 1.401,-0.627 1.401,-1.401 v -5.441 c 0,-0.773 -0.627,-1.401 -1.401,-1.401 h -17.931 c -4.632,0 -8.321,3.69 -8.321,8.243 v 35.796 c 0,4.551 3.611,8.241 8.164,8.241 h 14.443 c 4.632,0 8.32,-3.69 8.32,-8.241 v -13.502 c 0,-4.553 -2.982,-8.241 -8.32,-8.241 z m 89.136,-92.382 h -33.854 c -0.774,0 -1.402,0.627 -1.402,1.402 v 2.299 c 0,0.774 0.628,1.402 1.402,1.402 h 14.219 v 45.775 c 0,0.774 0.628,1.402 1.402,1.402 h 2.691 c 0.774,0 1.402,-0.628 1.402,-1.402 V 86.139 h 14.14 c 0.774,0 1.402,-0.628 1.402,-1.402 v -2.299 c 0,-0.775 -0.628,-1.402 -1.402,-1.402 m -60.773,33.756 8.791,-26.926 8.713,26.926 z m 28.795,16.672 -17.091,-49.492 c -0.193,-0.543 -0.713,-0.936 -1.322,-0.936 h -3.183 c -0.609,0 -1.128,0.393 -1.322,0.936 l -17.086,49.483 c -0.051,0.145 -0.085,0.296 -0.085,0.459 0,0.774 0.627,1.402 1.401,1.402 h 2.605 c 0.602,0 1.112,-0.384 1.311,-0.916 l 0.005,0.002 4.244,-12.589 h 20.88 l 4.376,12.545 v -0.003 c 0.187,0.555 0.71,0.961 1.328,0.961 h 2.614 c 0.774,0 1.401,-0.628 1.401,-1.402 0,-0.16 -0.027,-0.307 -0.076,-0.45 z m 41.9,-16.672 8.791,-26.926 8.713,26.926 z m 28.795,16.672 -17.091,-49.492 c -0.193,-0.543 -0.713,-0.936 -1.322,-0.936 h -3.183 c -0.609,0 -1.128,0.393 -1.322,0.936 l -17.243,49.397 0.157,0.086 c -0.051,0.145 -0.085,0.296 -0.085,0.459 0,0.774 0.627,1.402 1.402,1.402 h 2.604 c 0.602,0 1.112,-0.384 1.311,-0.916 l 0.005,0.002 4.244,-12.589 h 20.88 l 4.376,12.545 v -0.003 c 0.187,0.555 0.71,0.961 1.328,0.961 h 2.613 c 0.775,0 1.402,-0.628 1.402,-1.402 0,-0.16 -0.027,-0.307 -0.076,-0.45 z"
     id="path4672" />
  <path
     style="fill:#39b688;fill-rule:evenodd"
     inkscape:connector-curvature="0"
     d="m 354.405,53.887 v -10e-4 l -0.002,-0.002 v 5.792 c -0.003,0.372 0.091,0.75 0.29,1.094 0.202,0.349 0.488,0.622 0.816,0.806 l 5.003,2.888 -0.002,-0.003 h 0.001 -0.001 c 0.634,0.331 1.407,0.377 2.072,-0.008 l 88.837,-51.29 c 0.665,-0.384 1.012,-1.075 1.042,-1.789 v -0.001 l 0.002,0.003 10e-4,-5.792 c 0.002,-0.371 -0.091,-0.749 -0.291,-1.094 -0.201,-0.349 -0.487,-0.622 -0.815,-0.806 l -5.004,-2.887 0.002,0.002 c -0.633,-0.331 -1.406,-0.376 -2.071,0.008 -10.009,5.778 -88.811,51.275 -88.838,51.29 -0.664,0.384 -1.011,1.076 -1.042,1.79 m 6.105,166.182 0.001,-10e-4 v 10e-4 l 10e-4,-0.003 -5.016,2.896 c -0.323,0.183 -0.603,0.454 -0.803,0.798 -0.201,0.349 -0.295,0.733 -0.29,1.109 v 5.777 l 0.002,-0.003 c 0.031,0.714 0.378,1.407 1.042,1.79 l 88.838,51.29 c 0.665,0.384 1.437,0.339 2.071,0.008 h -10e-4 10e-4 l -0.002,0.003 5.017,-2.895 c 0.323,-0.184 0.603,-0.455 0.802,-0.799 0.202,-0.349 0.295,-0.734 0.29,-1.11 v -5.776 l -0.002,0.003 c -0.03,-0.715 -0.377,-1.406 -1.042,-1.79 -10.009,-5.778 -88.812,-51.275 -88.837,-51.29 -0.665,-0.384 -1.438,-0.339 -2.072,-0.008 m 120.494,53.092 -0.001,-10e-4 v 10e-4 l -10e-4,-0.003 -0.001,5.792 c -0.002,0.371 0.092,0.749 0.291,1.094 0.201,0.349 0.487,0.622 0.815,0.805 l 5.003,2.889 -0.002,-0.003 h 10e-4 c 0.633,0.331 1.406,0.376 2.071,-0.008 l 88.838,-51.29 c 0.665,-0.384 1.011,-1.075 1.042,-1.79 v 0.001 -0.001 l 0.001,0.003 10e-4,-5.792 c 0.002,-0.371 -0.091,-0.749 -0.291,-1.094 -0.201,-0.349 -0.487,-0.622 -0.815,-0.805 l -5.003,-2.889 0.002,0.003 h -0.001 v 0.001 c -0.633,-0.332 -1.405,-0.377 -2.07,0.007 -10.01,5.778 -88.812,51.275 -88.838,51.29 -0.665,0.384 -1.012,1.075 -1.042,1.79 M 599.436,89.173 h 0.003 l -5.015,-2.896 c -0.321,-0.188 -0.695,-0.296 -1.093,-0.296 -0.403,0 -0.782,0.111 -1.105,0.303 l -5.003,2.889 h 0.004 -10e-4 10e-4 c -0.605,0.383 -1.03,1.03 -1.03,1.798 v 102.58 c 0,0.768 0.425,1.415 1.029,1.797 h -10e-4 10e-4 -0.003 l 5.015,2.897 c 0.321,0.188 0.695,0.296 1.093,0.296 0.403,0 0.782,-0.112 1.105,-0.303 l 5.003,-2.89 h -0.003 c 0.603,-0.382 1.029,-1.029 1.029,-1.797 0,-11.557 0,-102.55 0,-102.58 0,-0.768 -0.425,-1.415 -1.029,-1.798 m -253.197,0 h 0.001 -0.001 0.003 l -5.015,-2.896 c -0.321,-0.188 -0.695,-0.296 -1.093,-0.296 -0.403,0 -0.782,0.111 -1.106,0.303 l -5.002,2.889 h 0.003 C 333.426,89.556 333,90.203 333,90.971 v 102.58 c 0,0.768 0.425,1.415 1.029,1.797 h -10e-4 10e-4 -0.003 l 5.016,2.897 c 0.32,0.188 0.694,0.296 1.092,0.296 0.403,0 0.783,-0.112 1.106,-0.303 l 5.002,-2.89 h -0.003 c 0.604,-0.382 1.029,-1.029 1.029,-1.797 0,-11.557 0,-102.55 0,-102.58 0,-0.768 -0.425,-1.415 -1.029,-1.798"
     id="path4674" />
  <path
     style="fill:#ffffff;fill-rule:evenodd;fill-opacity:1"
     inkscape:connector-curvature="0"
     d="m 221.393,180.688 c -7.771,0 -13.153,6.14 -13.153,13.659 v 0.13 c 0,7.505 5.507,13.781 13.283,13.781 7.766,0 13.155,-6.141 13.155,-13.661 v -0.12 c 0,-7.519 -5.515,-13.789 -13.285,-13.789 m -47.367,0.569 h -9.582 v 12.593 h 9.768 c 4.704,0 7.383,-2.506 7.383,-6.204 v -0.124 c 0,-4.137 -2.871,-6.265 -7.569,-6.265"
     id="path4678" />
  <path
     style="fill:#ffffff;fill-rule:evenodd;fill-opacity:1"
     inkscape:connector-curvature="0"
     d="m 221.393,217.145 c -13.528,0 -23.238,-10.074 -23.238,-22.548 v -0.12 c 0,-12.475 9.838,-22.686 23.368,-22.686 13.531,0 23.231,10.091 23.231,22.556 v 0.13 c 0,12.461 -9.833,22.668 -23.361,22.668 z M 193.989,115.276 V 75.337 c 0,-3.883 3.153,-7.031 7.031,-7.031 3.884,0 7.024,3.148 7.024,7.031 v 39.939 c 0,3.873 -3.14,7.027 -7.024,7.027 -3.878,0 -7.031,-3.154 -7.031,-7.027 z m -12.573,101.118 -9.398,-14.019 h -7.574 v 14.019 h -9.649 v -43.848 h 20.042 c 10.329,0 16.535,5.452 16.535,14.47 v 0.129 c 0,7.074 -3.813,11.528 -9.393,13.593 l 10.714,15.656 z M 146.888,122.02 V 61.833 c 0,-3.879 3.147,-7.031 7.037,-7.031 3.876,0 7.026,3.152 7.026,7.031 v 60.187 c 0,3.876 -3.15,7.029 -7.026,7.029 -3.89,0 -7.037,-3.153 -7.037,-7.029 z m 30.583,20.533 c 4.195,0 7.598,3.398 7.598,7.586 0,4.196 -3.403,7.589 -7.598,7.589 -4.192,0 -7.593,-3.393 -7.593,-7.589 0,-4.188 3.401,-7.586 7.593,-7.586 z M 170.44,41.586 c 0,-3.887 3.151,-7.031 7.031,-7.031 3.887,0 7.026,3.144 7.026,7.031 v 87.182 c 0,3.878 -3.139,7.033 -7.026,7.033 -3.88,0 -7.031,-3.155 -7.031,-7.033 z M 142.453,193.85 v 22.544 h -9.645 v -43.848 h 9.645 z m -19.12,-92.083 V 41.586 c 0,-3.887 3.156,-7.031 7.038,-7.031 3.876,0 7.025,3.144 7.025,7.031 v 60.181 c 0,3.887 -3.149,7.032 -7.025,7.032 -3.882,0 -7.038,-3.145 -7.038,-7.032 z m -1.196,101.664 c 0,8.718 -6.638,13.592 -16.097,13.592 -6.639,0 -13.336,-2.315 -18.599,-7.015 l 5.692,-6.831 c 3.946,3.26 8.086,5.331 13.106,5.331 3.945,0 6.319,-1.57 6.319,-4.137 v -0.121 c 0,-2.454 -1.508,-3.702 -8.838,-5.577 -8.817,-2.259 -14.532,-4.71 -14.532,-13.41 v -0.126 c 0,-7.951 6.39,-13.216 15.346,-13.216 6.392,0 11.853,1.995 16.291,5.578 l -5.013,7.262 c -3.878,-2.692 -7.698,-4.325 -11.402,-4.325 -3.694,0 -5.638,1.692 -5.638,3.824 v 0.139 c 0,2.873 1.879,3.803 9.462,5.74 8.895,2.329 13.903,5.522 13.903,13.171 z M 76.241,115.276 V 75.337 c 0,-3.883 3.145,-7.031 7.031,-7.031 3.879,0 7.021,3.148 7.021,7.031 v 39.939 c 0,3.873 -3.142,7.027 -7.021,7.027 -3.886,0 -7.031,-3.154 -7.031,-7.027 z M 63.16,217.145 c -12.898,0 -22.487,-9.959 -22.487,-22.548 v -0.12 c 0,-12.475 9.392,-22.686 22.863,-22.686 8.28,0 13.217,2.769 17.295,6.771 l -6.141,7.072 c -3.392,-3.058 -6.828,-4.946 -11.218,-4.946 -7.387,0 -12.719,6.14 -12.719,13.659 v 0.13 c 0,7.505 5.206,13.781 12.719,13.781 5.024,0 8.084,-2.007 11.53,-5.143 l 6.141,6.208 c -4.513,4.818 -9.523,7.822 -17.983,7.822 z M 99.785,55.082 c 0,-3.883 3.149,-7.031 7.034,-7.031 3.88,0 7.033,3.148 7.033,7.031 v 53.436 c 0,3.883 -3.153,7.035 -7.033,7.035 -3.885,0 -7.034,-3.152 -7.034,-7.035 z M 142.717,0.535 C 64.436,0.535 0.981,63.984 0.981,142.264 0.981,220.548 64.436,284 142.717,284 c 78.28,0 141.736,-63.452 141.736,-141.736 0,-78.28 -63.456,-141.729 -141.736,-141.729 z"
     id="path4680" />
</svg>
