<?xml version="1.0" encoding="UTF-8"?>
<!DOCTYPE svg PUBLIC "-//W3C//DTD SVG 1.1//EN"
    "http://www.w3.org/Graphics/SVG/1.1/DTD/svg11.dtd"><svg xmlns="http://www.w3.org/2000/svg" height="800.0000" stroke-opacity="1" viewBox="0 0 1071 800" font-size="1" width="1071.0105" xmlns:xlink="http://www.w3.org/1999/xlink" stroke="rgb(0,0,0)" version="1.1"><defs></defs><g stroke-linejoin="miter" stroke-opacity="1.0" fill-opacity="1.0" stroke="rgb(128,128,128)" stroke-width="0.9256394417268465" fill="rgb(128,128,128)" stroke-linecap="butt" stroke-miterlimit="10.0"><path d="M 441.5396,501.1840 ZM 447.6881,496.8976 c 0.0000,2.9162 0.2108,3.0567 2.9513 3.1972c 0.2108,0.2108 0.2108,0.9486 0.0000 1.1594c -1.2297,-0.0351 -2.9162,-0.0703 -4.3216 -0.0703c -1.4054,-0.0000 -2.6351,0.0351 -3.8648 0.0703c -0.2108,-0.2108 -0.2108,-0.9486 0.0000 -1.1594c 1.8973,-0.1405 2.4594,-0.2811 2.4594 -3.1972v -9.4161 h -2.4243 c -0.1405,-0.0000 -0.1757,-0.0351 -0.1757 -0.2108v -0.4567 c 0.0000,-0.2811 0.1757,-0.7027 0.8081 -0.7027h 1.7919 v -1.4054 c 0.0000,-5.4810 3.2675,-8.0458 6.2188 -8.0458c 1.3351,-0.0000 2.2486,0.1054 3.1621 0.7378c 0.7378,0.5622 1.1243,1.1946 1.1243 1.7919c 0.0000,0.7027 -0.8432,1.4405 -1.4405 1.4405c -0.7378,-0.0000 -1.1243,-0.4919 -1.4054 -1.1243c -0.4919,-1.2297 -1.0540,-1.6513 -2.1081 -1.6513c -1.1594,-0.0000 -2.7756,0.8432 -2.7756 6.2540v 2.0027 h 3.7945 c 0.1757,-0.0000 0.2811,0.0703 0.2811 0.2108v 0.7027 c 0.0000,0.3162 -0.4919,0.4567 -0.8081 0.4567h -3.2675 v 9.4161 ZM 452.4313,501.1840 ZM 453.8718,493.9814 c 0.0000,-2.2205 0.6676,-4.2653 1.9429 -5.7621c 1.2859,-1.5108 3.1937,-2.4594 5.5056 -2.4594c 5.3756,-0.0000 7.3783,4.2513 7.3783 7.9053c 0.0000,2.1537 -0.7132,4.3637 -2.2873 5.9026c -1.1981,1.1700 -2.8986,1.9675 -5.1613 1.9675c -4.9891,-0.0000 -7.3783,-3.9702 -7.3783 -7.5539ZM 453.8718,493.9814 ZM 460.7933,486.9897 c -3.1621,-0.0000 -3.8999,3.1270 -3.8999 6.1837c 0.0000,2.7054 1.1946,7.1323 4.8486 7.1323c 1.6513,-0.0000 3.9351,-1.0892 3.9351 -5.5161c 0.0000,-5.0594 -1.8621,-7.7999 -4.8837 -7.7999ZM 470.1391,501.1840 ZM 473.4769,496.8976 v -15.3538 c 0.0000,-2.6351 -0.2108,-2.7405 -2.2486 -2.8810c -0.2108,-0.2108 -0.2811,-0.7730 -0.2108 -1.0540c 1.4054,-0.1054 4.0405,-0.5973 4.9188 -0.9486c 0.3162,-0.0000 0.4567,0.1054 0.4567 0.3513c 0.0000,-0.0000 -0.1405,1.4054 -0.1405 3.6891v 16.1970 c 0.0000,2.9162 0.3865,3.0918 2.5297 3.1972c 0.2108,0.2108 0.2108,0.9486 0.0000 1.1594c -1.1594,-0.0351 -2.4946,-0.0703 -3.8999 -0.0703c -1.4054,-0.0000 -2.7054,0.0351 -3.9351 0.0703c -0.2108,-0.2108 -0.2108,-0.9486 0.0000 -1.1594c 2.1432,-0.1054 2.5297,-0.2811 2.5297 -3.1972ZM 479.4147,501.1840 ZM 491.5361,496.8273 v -6.6756 c 0.0000,-1.0892 -0.1054,-1.3351 -0.5973 -1.8973c -0.7027,-0.8081 -1.5811,-1.2648 -2.8459 -1.2648c -0.7027,-0.0000 -2.1783,0.1054 -3.2675 1.7567c -0.5270,0.7378 -1.0189,2.1432 -1.0189 4.6729c 0.0000,4.3918 1.9675,6.4648 3.8648 6.4648c 0.8784,-0.0000 2.0027,-0.5622 3.3026 -1.6865c 0.4954,-0.4286 0.5622,-0.7027 0.5622 -1.3702ZM 491.5361,496.8273 ZM 491.1496,499.4168 c -1.7216,1.4159 -3.0216,2.1186 -4.3918 2.1186c -3.7945,-0.0000 -5.9729,-3.1621 -5.9729 -7.4837c 0.0000,-2.6000 0.9135,-4.6729 2.4243 -6.1837c 1.4054,-1.3351 2.9513,-2.1081 5.2702 -2.1081c 1.1594,-0.0000 2.6000,0.5973 2.7405 0.5973c 0.2459,-0.0000 0.3162,-0.0703 0.3162 -0.3162v -4.4972 c 0.0000,-2.9513 -0.4216,-2.7756 -2.2486 -2.8810c -0.2108,-0.2108 -0.2811,-0.7730 -0.2108 -1.0540c 1.4054,-0.1054 4.0405,-0.5973 4.9188 -0.9486c 0.3162,-0.0000 0.4567,0.1054 0.4567 0.3513c 0.0000,-0.0000 -0.1405,1.4054 -0.1405 3.6891v 15.9160 c 0.0000,1.7216 0.3162,2.3892 2.5648 2.5648c 0.2108,0.2108 0.2108,0.7378 0.0000 0.9486c -2.1432,0.2459 -3.3729,0.7730 -4.1459 1.4054c -0.2108,0.0878 -0.3865,0.1054 -0.6676 -0.0000c 0.0000,-0.0000 -0.2986,-1.2121 -0.3865 -2.0729c -0.0246,-0.2459 -0.3584,-0.1827 -0.5270 -0.0457ZM 497.1927,501.1840 ZM 500.5305,496.8976 v -15.3538 c 0.0000,-2.6351 -0.2108,-2.7405 -2.2486 -2.8810c -0.2108,-0.2108 -0.2811,-0.7730 -0.2108 -1.0540c 1.4054,-0.1054 4.0405,-0.5973 4.9188 -0.9486c 0.3162,-0.0000 0.4567,0.1054 0.4567 0.3513c 0.0000,-0.0000 -0.1405,1.4054 -0.1405 3.6891v 16.1970 c 0.0000,2.9162 0.3865,3.0918 2.5297 3.1972c 0.2108,0.2108 0.2108,0.9486 0.0000 1.1594c -1.1594,-0.0351 -2.4946,-0.0703 -3.8999 -0.0703c -1.4054,-0.0000 -2.7054,0.0351 -3.9351 0.0703c -0.2108,-0.2108 -0.2108,-0.9486 0.0000 -1.1594c 2.1432,-0.1054 2.5297,-0.2811 2.5297 -3.1972ZM 506.4683,501.1840 ZM 516.5870,496.8976 c 0.0000,2.9162 0.5973,3.0918 3.0567 3.1972c 0.2108,0.2108 0.2108,0.9486 0.0000 1.1594c -1.7567,-0.0351 -2.6140,-0.0703 -4.2864 -0.0703c -1.9043,-0.0000 -3.1621,0.0351 -4.8837 0.0703c -0.2108,-0.2108 -0.2108,-0.9486 0.0000 -1.1594c 2.4594,-0.1054 3.4081,-0.2811 3.4081 -3.1972v -11.4539 c 0.0000,-1.1946 -0.1230,-2.0378 -0.7027 -2.0378c -0.6676,-0.0000 -1.4581,0.2108 -3.0567 0.8784c -0.3162,-0.2143 -0.4708,-0.5481 -0.5270 -0.9486c 3.0918,-1.4405 4.9434,-2.3083 6.8864 -3.5135c 0.1230,-0.0000 0.2108,0.0070 0.2108 0.1757c -0.0597,0.4567 -0.1054,2.6000 -0.1054 4.7080v 12.1917 ZM 531.5895,501.1840 ZM 537.5624,488.6059 c 0.0176,0.4216 0.2600,0.1792 0.4216 -0.0000c 1.4651,-1.6373 3.3026,-2.8459 5.3405 -2.8459c 1.8270,-0.0000 3.1797,1.1384 3.5135 2.5789c 0.0703,0.3022 0.2811,0.1265 0.3865 0.0141c 1.8305,-1.9324 3.9983,-2.5929 5.7972 -2.5929c 3.0918,-0.0000 3.6189,2.4594 3.6189 5.5864v 5.5513 c 0.0000,2.8810 0.3162,3.0567 2.2486 3.1972c 0.1757,0.2108 0.1757,0.9486 0.0000 1.1594c -0.9838,-0.0351 -2.2135,-0.0703 -3.6189 -0.0703c -1.4054,-0.0000 -2.7054,0.0351 -3.5837 0.0703c -0.1757,-0.2108 -0.1757,-0.9486 0.0000 -1.1594c 1.8270,-0.1405 2.1783,-0.3162 2.1783 -3.1972v -6.1837 c 0.0000,-2.3540 -0.7730,-3.1270 -2.1081 -3.1270c -1.3702,-0.0000 -2.9513,0.4567 -4.6378 2.3189c 0.0351,0.4216 0.0351,0.9135 0.0351 1.4054v 5.5864 c 0.0000,2.8810 0.3162,3.0567 2.0729 3.1972c 0.1757,0.2108 0.1757,0.9486 0.0000 1.1594c -0.8784,-0.0351 -2.0378,-0.0703 -3.4432 -0.0703c -1.4054,-0.0000 -2.7054,0.0351 -3.5837 0.0703c -0.1757,-0.2108 -0.1757,-0.9486 0.0000 -1.1594c 1.8973,-0.1405 2.1783,-0.3162 2.1783 -3.1972v -6.1134 c 0.0000,-2.3540 -0.9838,-3.1972 -2.3189 -3.1972c -1.0857,-0.0000 -2.4032,0.7132 -3.7945 2.0729c -0.2811,0.3057 -0.5973,0.7378 -0.5973 1.4757v 5.7621 c 0.0000,2.8810 0.3865,3.0216 2.1713 3.1972c 0.2108,0.2108 0.2108,0.9486 0.0000 1.1594c -1.0540,-0.0351 -2.1362,-0.0703 -3.5416 -0.0703c -1.4054,-0.0000 -2.7405,0.0351 -3.7945 0.0703c -0.2108,-0.2108 -0.2108,-0.9486 0.0000 -1.1594c 1.9324,-0.1405 2.3892,-0.3162 2.3892 -3.1972v -6.8512 c 0.0000,-2.0378 -0.3865,-2.2135 -2.2837 -2.3892c -0.0703,-0.2108 -0.1405,-0.7730 -0.0703 -0.9838c 2.4243,-0.3162 3.3378,-0.6324 4.3216 -1.0189c 0.2811,-0.0000 0.3478,0.1195 0.4216 0.2811c 0.1651,0.3619 0.2354,1.6267 0.2811 2.6702ZM 559.3458,501.1840 ZM 569.6402,492.9977 l -2.7756,0.7378 c -2.6000,0.6676 -3.3378,2.2837 -3.3378 3.8648c 0.0000,1.0892 0.7730,2.4946 2.5297 2.4946c 0.9838,-0.0000 2.1783,-0.8081 3.0918 -1.5459c 0.2811,-0.2108 0.4919,-0.4567 0.4919 -0.9135v -4.6378 ZM 569.6402,492.9977 ZM 569.6402,499.4976 h -0.0703 l -0.7027,0.5622 c -1.5459,1.1946 -2.6070,1.4757 -3.8297 1.4757c -2.4594,-0.0000 -4.4270,-0.9135 -4.4270 -3.7945c 0.0000,-2.3892 2.4243,-4.2513 5.7972 -5.0945l 3.0216,-0.7378 c 0.1054,-0.0351 0.2108,-0.1757 0.2108 -0.4216c 0.0000,-3.9702 -1.6513,-4.5675 -2.8459 -4.5675c -1.3351,-0.0000 -2.8108,0.3865 -2.8108 1.4757c 0.0000,0.3865 0.0351,0.5973 0.0703 0.7027c 0.0703,0.1405 0.1054,0.3865 0.1054 0.6324c 0.0000,0.4567 -0.6324,1.1946 -1.6513 1.1946c -0.8081,-0.0000 -1.2297,-0.4216 -1.2297 -1.2648c 0.0000,-2.0027 2.9162,-3.8999 5.7972 -3.8999c 2.5648,-0.0000 5.3053,0.9486 5.3053 5.9377v 5.1648 c 0.0000,1.6162 0.0351,2.9864 1.0540 2.9864c 0.4462,-0.0000 1.0365,-0.3443 1.3000 -0.5622c 0.3970,0.2213 0.5376,0.5165 0.5973 0.9486c -0.7273,0.7027 -1.9921,1.3000 -3.3378 1.3000c -1.7708,-0.0000 -2.1432,-0.9486 -2.3540 -2.0378ZM 575.4023,501.1840 ZM 581.7968,488.6059 l 2.1432,3.1621 c 0.2670,0.3935 0.4146,0.4216 0.6676 0.0703l 2.2837,-3.1972 c 0.8503,-1.1911 0.4462,-1.3000 -0.8432 -1.4405c -0.2108,-0.2108 -0.2108,-0.9486 0.0000 -1.1594c 0.9135,0.0351 1.8973,0.0703 2.9513 0.0703c 1.0540,-0.0000 1.8621,-0.0351 2.5648 -0.0703c 0.2108,0.2108 0.2108,0.9486 0.0000 1.1594c -1.2824,0.1054 -2.1081,0.2811 -3.4081 1.9324l -2.9513,3.7594 c -0.1651,0.2108 -0.1476,0.3197 0.0000 0.5270l 3.1621,4.4621 c 1.4159,1.9992 1.9219,2.1081 3.5135 2.2135c 0.2108,0.2108 0.2108,0.9486 0.0000 1.1594c -0.8432,-0.0351 -1.7919,-0.0703 -3.1270 -0.0703c -1.2648,-0.0000 -2.4243,0.0351 -3.4783 0.0703c -0.2108,-0.2108 -0.2108,-0.9486 0.0000 -1.1594c 1.1138,-0.1159 1.6794,-0.1792 0.4567 -1.8621l -2.0378,-2.8108 c -0.2213,-0.3022 -0.3408,-0.3478 -0.6324 0.0703l -2.2135,3.1972 c -0.7905,1.1419 -0.4919,1.2754 0.7730 1.4054c 0.2108,0.2108 0.2108,0.9486 0.0000 1.1594c -0.9135,-0.0351 -1.8973,-0.0703 -2.9513 -0.0703c -1.0540,-0.0000 -1.8270,0.0351 -2.5297 0.0703c -0.2108,-0.2108 -0.2108,-0.9486 0.0000 -1.1594c 1.2297,-0.0703 2.0167,-0.1792 3.4081 -1.9675l 2.9513,-3.7945 c 0.1265,-0.1616 0.1370,-0.2740 -0.0351 -0.5270l -3.0567,-4.4621 c -0.9838,-1.4405 -1.9675,-2.0378 -3.1621 -2.1432c -0.2108,-0.2108 -0.2108,-0.9486 0.0000 -1.1594c 0.9135,0.0351 1.9675,0.0703 3.0216 0.0703c 1.0540,-0.0000 2.6000,-0.0351 3.5486 -0.0703c 0.2108,0.2108 0.2108,0.9486 0.0000 1.1594c -1.5705,0.1651 -1.8235,0.2178 -1.0189 1.4054Z"/></g><g stroke-linejoin="miter" stroke-opacity="1.0" fill-opacity="1.0" stroke="rgb(255,255,255)" stroke-width="9.256394417268465" fill="rgb(255,255,255)" stroke-linecap="butt" stroke-miterlimit="10.0"><path d="M 436.6875,525.4445 l -0.0000,-48.5208 h -48.5208 l -0.0000,48.5208 Z"/></g><g stroke-linejoin="miter" stroke-opacity="1.0" fill-opacity="1.0" stroke="rgb(255,255,255)" stroke-width="0.9256394417268465" fill="rgb(255,255,255)" stroke-linecap="butt" stroke-miterlimit="10.0"><path d="M 404.2583,501.1840 ZM 410.2312,482.3870 c -1.1243,-0.0000 -2.2837,0.2459 -3.0567 3.0567c -0.3865,0.0457 -0.7413,0.0035 -1.1243 -0.1054c 0.2811,-1.8270 0.6676,-3.9351 0.7027 -5.6215c 0.0000,-0.1054 0.0351,-0.1054 0.1405 -0.1054c 0.6324,0.1405 0.5622,0.4919 1.7567 0.4919h 7.2377 c 1.3351,-0.0000 2.1081,-0.2108 2.7054 -0.3865l 0.5622,0.4216 c -3.9351,9.5917 -5.8675,15.4241 -7.8701 21.3970l -2.3892,0.1054 l -0.2811,-0.2459 c 2.3892,-5.3405 5.1648,-12.1917 7.9053 -19.0078h -6.2891 Z"/></g><g stroke-linejoin="miter" stroke-opacity="1.0" fill-opacity="1.0" stroke="rgb(255,255,255)" stroke-width="9.256394417268465" fill="rgb(255,255,255)" stroke-linecap="butt" stroke-miterlimit="10.0"><path d="M 388.1667,525.4445 l -0.0000,-48.5208 h -48.5208 l -0.0000,48.5208 Z"/></g><g stroke-linejoin="miter" stroke-opacity="1.0" fill-opacity="1.0" stroke="rgb(255,255,255)" stroke-width="0.9256394417268465" fill="rgb(255,255,255)" stroke-linecap="butt" stroke-miterlimit="10.0"><path d="M 355.7375,501.1840 ZM 361.7104,482.3870 c -1.1243,-0.0000 -2.2837,0.2459 -3.0567 3.0567c -0.3865,0.0457 -0.7413,0.0035 -1.1243 -0.1054c 0.2811,-1.8270 0.6676,-3.9351 0.7027 -5.6215c 0.0000,-0.1054 0.0351,-0.1054 0.1405 -0.1054c 0.6324,0.1405 0.5622,0.4919 1.7567 0.4919h 7.2377 c 1.3351,-0.0000 2.1081,-0.2108 2.7054 -0.3865l 0.5622,0.4216 c -3.9351,9.5917 -5.8675,15.4241 -7.8701 21.3970l -2.3892,0.1054 l -0.2811,-0.2459 c 2.3892,-5.3405 5.1648,-12.1917 7.9053 -19.0078h -6.2891 Z"/></g><g stroke-linejoin="miter" stroke-opacity="1.0" fill-opacity="1.0" stroke="rgb(255,255,255)" stroke-width="9.256394417268465" fill="rgb(255,255,255)" stroke-linecap="butt" stroke-miterlimit="10.0"><path d="M 339.6458,525.4445 l -0.0000,-48.5208 h -48.5208 l -0.0000,48.5208 Z"/></g><g stroke-linejoin="miter" stroke-opacity="1.0" fill-opacity="1.0" stroke="rgb(255,255,255)" stroke-width="0.9256394417268465" fill="rgb(255,255,255)" stroke-linecap="butt" stroke-miterlimit="10.0"><path d="M 307.2166,501.1840 ZM 313.1895,482.3870 c -1.1243,-0.0000 -2.2837,0.2459 -3.0567 3.0567c -0.3865,0.0457 -0.7413,0.0035 -1.1243 -0.1054c 0.2811,-1.8270 0.6676,-3.9351 0.7027 -5.6215c 0.0000,-0.1054 0.0351,-0.1054 0.1405 -0.1054c 0.6324,0.1405 0.5622,0.4919 1.7567 0.4919h 7.2377 c 1.3351,-0.0000 2.1081,-0.2108 2.7054 -0.3865l 0.5622,0.4216 c -3.9351,9.5917 -5.8675,15.4241 -7.8701 21.3970l -2.3892,0.1054 l -0.2811,-0.2459 c 2.3892,-5.3405 5.1648,-12.1917 7.9053 -19.0078h -6.2891 Z"/></g><g stroke-linejoin="miter" stroke-opacity="1.0" fill-opacity="1.0" stroke="rgb(255,255,255)" stroke-width="9.256394417268465" fill="rgb(255,255,255)" stroke-linecap="butt" stroke-miterlimit="10.0"><path d="M 291.1250,525.4445 l -0.0000,-48.5208 h -48.5208 l -0.0000,48.5208 Z"/></g><g stroke-linejoin="miter" stroke-opacity="1.0" fill-opacity="1.0" stroke="rgb(255,255,255)" stroke-width="0.9256394417268465" fill="rgb(255,255,255)" stroke-linecap="butt" stroke-miterlimit="10.0"><path d="M 258.6958,501.1840 ZM 269.9037,494.5436 c 0.0000,-3.8297 -1.7919,-5.3405 -4.0756 -5.3405c -1.2648,-0.0000 -2.6000,0.1405 -4.4621 0.8432l 1.1946,-10.1188 c 1.2297,0.1054 2.4946,0.1757 3.7945 0.1757c 1.8621,-0.0000 3.7594,-0.1757 5.7621 -0.3865l 0.2459,0.1405 l -0.5622,2.3892 c -1.4405,0.1405 -2.6351,0.2108 -3.6891 0.2108c -1.6865,-0.0000 -2.8108,-0.1757 -4.1107 -0.3162l -0.7027,5.8675 c 0.6324,-0.2459 1.9324,-0.5622 3.4432 -0.5622c 3.9351,-0.0000 6.2891,3.0567 6.2891 6.4648c 0.0000,4.4270 -3.0918,7.6593 -7.4485 7.6593c -2.0027,-0.0000 -4.9891,-1.1946 -4.9891 -2.6351c 0.0000,-0.7027 0.6676,-1.3000 1.3351 -1.3000c 0.7378,-0.0000 1.3351,0.5270 1.7919 1.1243c 0.5270,0.7027 0.9838,1.5811 2.3189 1.5811c 2.1081,-0.0000 3.8648,-2.4594 3.8648 -5.7972Z"/></g><g stroke-linejoin="miter" stroke-opacity="1.0" fill-opacity="1.0" stroke="rgb(255,255,255)" stroke-width="9.256394417268465" fill="rgb(255,255,255)" stroke-linecap="butt" stroke-miterlimit="10.0"><path d="M 242.6042,525.4445 l -0.0000,-48.5208 h -48.5208 l -0.0000,48.5208 Z"/></g><g stroke-linejoin="miter" stroke-opacity="1.0" fill-opacity="1.0" stroke="rgb(255,255,255)" stroke-width="0.9256394417268465" fill="rgb(255,255,255)" stroke-linecap="butt" stroke-miterlimit="10.0"><path d="M 210.1750,501.1840 ZM 221.3829,494.5436 c 0.0000,-3.8297 -1.7919,-5.3405 -4.0756 -5.3405c -1.2648,-0.0000 -2.6000,0.1405 -4.4621 0.8432l 1.1946,-10.1188 c 1.2297,0.1054 2.4946,0.1757 3.7945 0.1757c 1.8621,-0.0000 3.7594,-0.1757 5.7621 -0.3865l 0.2459,0.1405 l -0.5622,2.3892 c -1.4405,0.1405 -2.6351,0.2108 -3.6891 0.2108c -1.6865,-0.0000 -2.8108,-0.1757 -4.1107 -0.3162l -0.7027,5.8675 c 0.6324,-0.2459 1.9324,-0.5622 3.4432 -0.5622c 3.9351,-0.0000 6.2891,3.0567 6.2891 6.4648c 0.0000,4.4270 -3.0918,7.6593 -7.4485 7.6593c -2.0027,-0.0000 -4.9891,-1.1946 -4.9891 -2.6351c 0.0000,-0.7027 0.6676,-1.3000 1.3351 -1.3000c 0.7378,-0.0000 1.3351,0.5270 1.7919 1.1243c 0.5270,0.7027 0.9838,1.5811 2.3189 1.5811c 2.1081,-0.0000 3.8648,-2.4594 3.8648 -5.7972Z"/></g><g stroke-linejoin="miter" stroke-opacity="1.0" fill-opacity="1.0" stroke="rgb(255,255,255)" stroke-width="9.256394417268465" fill="rgb(255,255,255)" stroke-linecap="butt" stroke-miterlimit="10.0"><path d="M 194.0833,525.4445 l -0.0000,-48.5208 h -48.5208 l -0.0000,48.5208 Z"/></g><g stroke-linejoin="miter" stroke-opacity="1.0" fill-opacity="1.0" stroke="rgb(255,255,255)" stroke-width="0.9256394417268465" fill="rgb(255,255,255)" stroke-linecap="butt" stroke-miterlimit="10.0"><path d="M 161.6541,501.1840 ZM 172.8621,494.5436 c 0.0000,-3.8297 -1.7919,-5.3405 -4.0756 -5.3405c -1.2648,-0.0000 -2.6000,0.1405 -4.4621 0.8432l 1.1946,-10.1188 c 1.2297,0.1054 2.4946,0.1757 3.7945 0.1757c 1.8621,-0.0000 3.7594,-0.1757 5.7621 -0.3865l 0.2459,0.1405 l -0.5622,2.3892 c -1.4405,0.1405 -2.6351,0.2108 -3.6891 0.2108c -1.6865,-0.0000 -2.8108,-0.1757 -4.1107 -0.3162l -0.7027,5.8675 c 0.6324,-0.2459 1.9324,-0.5622 3.4432 -0.5622c 3.9351,-0.0000 6.2891,3.0567 6.2891 6.4648c 0.0000,4.4270 -3.0918,7.6593 -7.4485 7.6593c -2.0027,-0.0000 -4.9891,-1.1946 -4.9891 -2.6351c 0.0000,-0.7027 0.6676,-1.3000 1.3351 -1.3000c 0.7378,-0.0000 1.3351,0.5270 1.7919 1.1243c 0.5270,0.7027 0.9838,1.5811 2.3189 1.5811c 2.1081,-0.0000 3.8648,-2.4594 3.8648 -5.7972Z"/></g><g stroke-linejoin="miter" stroke-opacity="1.0" fill-opacity="1.0" stroke="rgb(255,255,255)" stroke-width="9.256394417268465" fill="rgb(255,255,255)" stroke-linecap="butt" stroke-miterlimit="10.0"><path d="M 145.5625,525.4445 l -0.0000,-48.5208 h -48.5208 l -0.0000,48.5208 Z"/></g><g stroke-linejoin="miter" stroke-opacity="1.0" fill-opacity="1.0" stroke="rgb(255,255,255)" stroke-width="0.9256394417268465" fill="rgb(255,255,255)" stroke-linecap="butt" stroke-miterlimit="10.0"><path d="M 113.1333,501.1840 ZM 124.3412,494.5436 c 0.0000,-3.8297 -1.7919,-5.3405 -4.0756 -5.3405c -1.2648,-0.0000 -2.6000,0.1405 -4.4621 0.8432l 1.1946,-10.1188 c 1.2297,0.1054 2.4946,0.1757 3.7945 0.1757c 1.8621,-0.0000 3.7594,-0.1757 5.7621 -0.3865l 0.2459,0.1405 l -0.5622,2.3892 c -1.4405,0.1405 -2.6351,0.2108 -3.6891 0.2108c -1.6865,-0.0000 -2.8108,-0.1757 -4.1107 -0.3162l -0.7027,5.8675 c 0.6324,-0.2459 1.9324,-0.5622 3.4432 -0.5622c 3.9351,-0.0000 6.2891,3.0567 6.2891 6.4648c 0.0000,4.4270 -3.0918,7.6593 -7.4485 7.6593c -2.0027,-0.0000 -4.9891,-1.1946 -4.9891 -2.6351c 0.0000,-0.7027 0.6676,-1.3000 1.3351 -1.3000c 0.7378,-0.0000 1.3351,0.5270 1.7919 1.1243c 0.5270,0.7027 0.9838,1.5811 2.3189 1.5811c 2.1081,-0.0000 3.8648,-2.4594 3.8648 -5.7972Z"/></g><g stroke-linejoin="miter" stroke-opacity="1.0" fill-opacity="1.0" stroke="rgb(255,255,255)" stroke-width="9.256394417268465" fill="rgb(255,255,255)" stroke-linecap="butt" stroke-miterlimit="10.0"><path d="M 97.0417,525.4445 l -0.0000,-48.5208 h -48.5208 l -0.0000,48.5208 Z"/></g><g stroke-linejoin="miter" stroke-opacity="1.0" fill-opacity="1.0" stroke="rgb(255,255,255)" stroke-width="0.9256394417268465" fill="rgb(255,255,255)" stroke-linecap="butt" stroke-miterlimit="10.0"><path d="M 64.6125,501.1840 ZM 75.8204,494.5436 c 0.0000,-3.8297 -1.7919,-5.3405 -4.0756 -5.3405c -1.2648,-0.0000 -2.6000,0.1405 -4.4621 0.8432l 1.1946,-10.1188 c 1.2297,0.1054 2.4946,0.1757 3.7945 0.1757c 1.8621,-0.0000 3.7594,-0.1757 5.7621 -0.3865l 0.2459,0.1405 l -0.5622,2.3892 c -1.4405,0.1405 -2.6351,0.2108 -3.6891 0.2108c -1.6865,-0.0000 -2.8108,-0.1757 -4.1107 -0.3162l -0.7027,5.8675 c 0.6324,-0.2459 1.9324,-0.5622 3.4432 -0.5622c 3.9351,-0.0000 6.2891,3.0567 6.2891 6.4648c 0.0000,4.4270 -3.0918,7.6593 -7.4485 7.6593c -2.0027,-0.0000 -4.9891,-1.1946 -4.9891 -2.6351c 0.0000,-0.7027 0.6676,-1.3000 1.3351 -1.3000c 0.7378,-0.0000 1.3351,0.5270 1.7919 1.1243c 0.5270,0.7027 0.9838,1.5811 2.3189 1.5811c 2.1081,-0.0000 3.8648,-2.4594 3.8648 -5.7972Z"/></g><g stroke-linejoin="miter" stroke-opacity="1.0" fill-opacity="1.0" stroke="rgb(255,255,255)" stroke-width="9.256394417268465" fill="rgb(255,255,255)" stroke-linecap="butt" stroke-miterlimit="10.0"><path d="M 48.5208,525.4445 l -0.0000,-48.5208 h -48.5208 l -0.0000,48.5208 Z"/></g><g stroke-linejoin="miter" stroke-opacity="1.0" fill-opacity="1.0" stroke="rgb(0,0,255)" stroke-width="0.9256394417268465" fill="rgb(0,0,255)" stroke-linecap="butt" stroke-miterlimit="10.0"><path d="M 16.0916,501.1840 ZM 18.2348,484.7411 c 0.0000,-2.1081 2.4243,-4.9891 6.3242 -4.9891c 2.8459,-0.0000 5.9377,1.5459 5.9377 5.3405c 0.0000,2.6702 -1.5108,4.2161 -3.5135 6.1485l -3.5486,3.4081 c -0.1757,0.1757 -2.6000,2.5648 -2.6000 4.2513h 6.2540 c 1.2648,-0.0000 1.8621,-0.8784 2.4594 -3.3729c 0.3513,-0.0703 0.8081,-0.0000 1.0189 0.1757c -0.0351,1.0540 -0.3865,3.6891 -0.8432 5.5513c 0.0000,-0.0000 -1.6162,-0.0703 -2.7405 -0.0703h -6.1485 c -1.1243,-0.0000 -2.9162,0.0703 -2.9162 0.0703c 0.0000,-2.0729 0.5622,-3.7594 4.0053 -7.2729l 2.6000,-2.5648 c 2.0729,-2.1081 2.8810,-3.9351 2.8810 -6.1837c 0.0000,-3.3729 -1.7919,-4.2513 -3.0567 -4.2513c -2.5648,-0.0000 -3.4783,1.2648 -3.4783 2.1432c 0.0000,0.2811 0.2108,0.5973 0.2811 0.8432c 0.0703,0.2459 0.1405,0.4567 0.1405 0.7378c 0.0000,0.7765 -1.0540,1.4054 -1.6513 1.4054c -0.7378,-0.0000 -1.4054,-0.6324 -1.4054 -1.3702Z"/></g><g stroke-linejoin="miter" stroke-opacity="1.0" fill-opacity="1.0" stroke="rgb(0,0,0)" stroke-width="0.9256394417268465" fill="rgb(0,0,0)" stroke-linecap="butt" stroke-miterlimit="10.0"><path d="M 441.5396,432.5451 ZM 447.4071,422.5002 v 5.7586 c 0.0000,2.9162 0.3162,3.0567 2.1010 3.1972c 0.2108,0.2108 0.2108,0.9486 0.0000 1.1594c -0.9838,-0.0351 -2.1362,-0.0703 -3.4713 -0.0703c -1.4054,-0.0000 -2.6983,0.0351 -3.8578 0.0703c -0.2108,-0.2108 -0.2108,-0.9486 0.0000 -1.1594c 2.0378,-0.1405 2.4524,-0.2811 2.4524 -3.1972v -15.3538 c 0.0000,-2.9513 -0.4216,-2.7756 -2.2486 -2.8810c -0.2108,-0.2108 -0.2811,-0.7730 -0.2108 -1.0540c 1.4054,-0.1054 4.0405,-0.5973 4.9188 -0.9486c 0.3162,-0.0000 0.4567,0.1054 0.4567 0.3513c 0.0000,-0.0000 -0.1405,1.4054 -0.1405 3.6891l -0.0281,7.9053 c 0.0000,0.4919 0.2249,0.1335 0.3443 -0.0000c 2.1432,-2.3892 4.2478,-2.8459 5.9729 -2.8459c 1.2297,-0.0000 2.3259,0.4216 2.9162 1.1946c 0.8186,1.0716 0.9486,2.7756 0.9486 4.7080v 5.2351 c 0.0000,2.8810 0.3865,3.0216 2.3540 3.1972c 0.1757,0.2108 0.1757,0.9486 0.0000 1.1594c -1.1594,-0.0351 -2.3189,-0.0703 -3.7243 -0.0703c -1.4054,-0.0000 -2.6000,0.0351 -3.5837 0.0703c -0.1757,-0.2108 -0.1757,-0.9486 0.0000 -1.1594c 1.8270,-0.1757 2.1783,-0.3162 2.1783 -3.1972v -5.3405 c 0.0000,-1.0540 -0.0703,-2.0097 -0.4216 -2.7054c -0.4076,-0.8046 -1.1454,-1.2648 -1.8621 -1.2648c -1.3843,-0.0000 -3.1621,0.7624 -4.4972 2.0729c -0.2811,0.3057 -0.5973,0.7378 -0.5973 1.4792ZM 460.4420,432.5451 ZM 464.7987,422.6372 l 6.3594,-0.1054 c 0.3865,-0.0070 0.5270,-0.1757 0.5270 -0.4919c 0.0000,-2.9513 -1.5811,-3.6891 -2.9162 -3.6891c -0.8432,-0.0000 -3.3026,0.3162 -3.9702 4.2864ZM 464.7987,422.6372 ZM 474.0039,429.2776 c 0.4216,0.0351 0.6324,0.2108 0.7378 0.5622c -1.4054,1.8270 -3.3026,3.0567 -5.9729 3.0567c -2.5297,-0.0000 -4.1810,-0.8432 -5.3756 -2.2486c -1.1594,-1.3351 -1.6513,-3.2324 -1.6513 -5.1999c 0.0000,-5.3405 3.9702,-8.2566 7.0269 -8.2566c 4.8837,-0.0000 5.9377,3.1621 5.9377 6.1134c 0.0000,0.3865 -0.2459,0.5973 -0.6676 0.5973l -9.3458,-0.0703 c 0.0000,2.0378 0.4216,3.6540 1.1243 4.8134c 1.0892,1.7919 2.5648,2.5297 3.8297 2.5297c 2.0378,-0.0000 3.0567,-0.5622 4.3567 -1.8973ZM 476.1471,432.5451 ZM 479.3093,411.4995 c 0.0000,-0.8432 0.9838,-1.6865 1.8270 -1.6865c 0.9486,-0.0000 1.6865,0.9838 1.6865 1.8270c 0.0000,0.7413 -0.8432,1.6865 -1.8270 1.6865c -0.8432,-0.0000 -1.6865,-0.9135 -1.6865 -1.8270ZM 479.3093,411.4995 ZM 482.5065,428.2587 c 0.0000,2.9162 0.3865,3.0567 2.5297 3.1972c 0.2108,0.2108 0.2108,0.9486 0.0000 1.1594c -1.1594,-0.0351 -2.4946,-0.0703 -3.8999 -0.0703c -1.4054,-0.0000 -2.7756,0.0351 -3.9351 0.0703c -0.2108,-0.2108 -0.2108,-0.9486 0.0000 -1.1594c 2.1432,-0.1757 2.5297,-0.2811 2.5297 -3.1972v -6.8512 c 0.0000,-2.0027 -0.3689,-2.2100 -2.2837 -2.3892c -0.0703,-0.2108 -0.1405,-0.7730 -0.0703 -0.9838c 2.4243,-0.3162 3.8121,-0.6324 4.8134 -1.0189c 0.2811,-0.0000 0.4567,0.1054 0.4567 0.2459c 0.0000,-0.0000 -0.1405,2.2486 -0.1405 3.9948v 7.0023 ZM 485.6686,432.5451 ZM 496.8765,422.7426 c 0.0000,-2.9162 -1.1946,-4.5324 -3.4081 -4.5324c -1.9324,-0.0000 -2.8108,1.2648 -2.8108 3.7243c 0.0000,2.2486 0.3162,4.7432 3.2675 4.7432c 1.3000,-0.0000 2.9513,-0.6676 2.9513 -3.9351ZM 496.8765,422.7426 ZM 490.3064,432.8965 c -1.0189,1.2297 -1.0892,2.1081 -1.0892 3.3026c 0.0000,2.3892 2.9513,3.4081 4.2161 3.4081c 3.1621,-0.0000 6.8864,-1.3351 6.8864 -3.8648c 0.0000,-0.9135 -0.4216,-1.4054 -1.7919 -2.1783c -1.0189,-0.5622 -2.4946,-0.5973 -4.2513 -0.5973c -0.4919,-0.0000 -1.4757,0.1054 -2.5648 0.1054c -0.4567,-0.0000 -1.0189,-0.0703 -1.4054 -0.1757ZM 490.3064,432.8965 ZM 501.2684,418.9481 c -0.3865,-0.0000 -0.8432,-0.3513 -0.9838 -0.6324c -0.2108,-0.3162 -0.4567,-0.4216 -0.7027 -0.4216c -0.4567,-0.0000 -1.1594,0.4919 -1.4054 0.8432c 1.0189,1.0540 1.5108,2.0027 1.5108 3.6540c 0.0000,3.4432 -2.8459,5.3756 -5.9377 5.3756c -1.3702,-0.0000 -2.3540,-0.2459 -3.1972 -0.7378c -0.4216,0.5973 -0.6324,1.3351 -0.6324 2.0378c 0.0000,1.5108 1.2297,2.0027 2.2486 2.0027c 0.1757,-0.0000 0.5270,-0.0351 1.0540 -0.0703c 0.8432,-0.1054 1.7216,-0.1757 2.3540 -0.1757c 1.3000,-0.0000 3.7594,0.0351 5.1296 1.1594c 1.0189,0.8432 1.5459,1.7216 1.5459 2.8459c 0.0000,3.7945 -5.1296,6.0783 -9.8728 6.0783c -2.7054,-0.0000 -5.5864,-0.9486 -5.5864 -4.0053c 0.0000,-1.5108 0.9838,-3.1270 2.8810 -4.2513c -0.9135,-0.4567 -1.6162,-1.4405 -1.6162 -2.7054c 0.0000,-1.1946 0.5622,-2.7054 1.5459 -3.5486c -0.9838,-0.9486 -1.8270,-2.0378 -1.8270 -3.9351c 0.0000,-3.2324 2.8810,-5.3405 6.0080 -5.3405c 2.0729,-0.0000 3.2324,0.7027 3.6540 0.9838c 0.9135,-1.1946 2.6000,-1.7919 3.5135 -1.7919c 0.9486,-0.0000 1.6162,0.5622 1.6162 1.3000c 0.0000,0.7027 -0.6324,1.3351 -1.3000 1.3351ZM 503.2359,432.5451 ZM 509.1034,422.5002 v 5.7586 c 0.0000,2.9162 0.3162,3.0567 2.1010 3.1972c 0.2108,0.2108 0.2108,0.9486 0.0000 1.1594c -0.9838,-0.0351 -2.1362,-0.0703 -3.4713 -0.0703c -1.4054,-0.0000 -2.6983,0.0351 -3.8578 0.0703c -0.2108,-0.2108 -0.2108,-0.9486 0.0000 -1.1594c 2.0378,-0.1405 2.4524,-0.2811 2.4524 -3.1972v -15.3538 c 0.0000,-2.9513 -0.4216,-2.7756 -2.2486 -2.8810c -0.2108,-0.2108 -0.2811,-0.7730 -0.2108 -1.0540c 1.4054,-0.1054 4.0405,-0.5973 4.9188 -0.9486c 0.3162,-0.0000 0.4567,0.1054 0.4567 0.3513c 0.0000,-0.0000 -0.1405,1.4054 -0.1405 3.6891l -0.0281,7.9053 c 0.0000,0.4919 0.2249,0.1335 0.3443 -0.0000c 2.1432,-2.3892 4.2478,-2.8459 5.9729 -2.8459c 1.2297,-0.0000 2.3259,0.4216 2.9162 1.1946c 0.8186,1.0716 0.9486,2.7756 0.9486 4.7080v 5.2351 c 0.0000,2.8810 0.3865,3.0216 2.3540 3.1972c 0.1757,0.2108 0.1757,0.9486 0.0000 1.1594c -1.1594,-0.0351 -2.3189,-0.0703 -3.7243 -0.0703c -1.4054,-0.0000 -2.6000,0.0351 -3.5837 0.0703c -0.1757,-0.2108 -0.1757,-0.9486 0.0000 -1.1594c 1.8270,-0.1757 2.1783,-0.3162 2.1783 -3.1972v -5.3405 c 0.0000,-1.0540 -0.0703,-2.0097 -0.4216 -2.7054c -0.4076,-0.8046 -1.1454,-1.2648 -1.8621 -1.2648c -1.3843,-0.0000 -3.1621,0.7624 -4.4972 2.0729c -0.2811,0.3057 -0.5973,0.7378 -0.5973 1.4792ZM 522.1383,432.5451 ZM 523.6491,417.4724 l 1.6162,-0.0035 c 0.0000,-3.8964 -0.1054,-3.6645 -0.1054 -4.0721c 0.0000,-0.2424 0.3513,-0.3619 0.7730 -0.4813c 0.4392,-0.1230 0.7976,-0.2740 1.1946 -0.4954c 0.3268,-0.1792 0.6254,-0.3162 0.7835 -0.3162c 0.1651,-0.0000 0.2705,0.0843 0.2705 0.3092c 0.0000,-0.0000 -0.1405,1.4054 -0.1405 3.6891v 1.3702 h 4.2161 c 0.1757,-0.0000 0.2811,0.0703 0.2811 0.2108v 0.7027 c 0.0000,0.3162 -0.4919,0.4567 -0.8432 0.4567h -3.6540 v 8.8890 c 0.0000,2.1783 0.2108,3.2324 1.1594 3.2324c 0.9135,-0.0000 1.9675,-0.2811 2.8810 -0.9838c 0.3513,0.0351 0.5622,0.2354 0.6324 0.5973c -1.3702,1.5459 -3.1270,2.3189 -4.7432 2.3189c -1.6162,-0.0000 -2.7054,-0.9838 -2.7054 -3.4783v -10.5755 h -2.0729 c -0.1405,-0.0000 -0.1757,-0.0351 -0.1757 -0.2108v -0.4567 c 0.0000,-0.2811 0.1405,-0.7027 0.6324 -0.7027ZM 533.2408,432.5451 ZM 534.9273,427.6966 c 0.2108,-0.2108 0.8784,-0.2459 1.0892 -0.0351c 0.2108,0.8784 0.5973,2.4243 1.3702 3.2324c 0.3619,0.3759 1.1243,0.8432 2.4946 0.8432c 1.3000,-0.0000 2.9864,-0.7378 2.9864 -2.4594c 0.0000,-1.5108 -0.6676,-2.2486 -3.5837 -3.4432c -2.7054,-1.1243 -3.8648,-2.2135 -3.8648 -4.7783c 0.0000,-2.2486 2.3540,-3.9351 4.9540 -3.9351c 1.8270,-0.0000 3.5135,0.4919 4.6026 0.6676c -0.0351,1.1594 -0.1054,2.4594 -0.2108 3.7243c -0.2108,0.2108 -0.9135,0.2459 -1.1243 0.0351c -0.4567,-2.9864 -2.4946,-3.2675 -3.2675 -3.2675c -1.1946,-0.0000 -2.4594,0.8081 -2.4594 2.2486c 0.0000,1.9324 1.3984,2.4770 3.5135 3.2605c 2.3892,0.8854 4.1107,2.2802 4.1107 4.6799c 0.0000,3.4783 -3.6189,4.4270 -5.5864 4.4270c -1.3000,-0.0000 -2.2486,-0.1405 -3.1972 -0.3865c -0.2459,-0.0703 -0.4567,-0.0703 -0.7027 -0.0703c -0.1757,-0.0000 -0.5270,0.0351 -0.8784 0.1054c 0.0000,-1.4757 -0.1054,-3.1270 -0.2459 -4.8486Z"/></g><g stroke-linejoin="miter" stroke-opacity="1.0" fill-opacity="1.0" stroke="rgb(255,255,255)" stroke-width="9.256394417268465" fill="rgb(255,255,255)" stroke-linecap="butt" stroke-miterlimit="10.0"><path d="M 436.6875,456.8056 l -0.0000,-48.5208 h -48.5208 l -0.0000,48.5208 Z"/></g><g stroke-linejoin="miter" stroke-opacity="1.0" fill-opacity="1.0" stroke="rgb(0,0,0)" stroke-width="0.9256394417268465" fill="rgb(0,0,0)" stroke-linecap="butt" stroke-miterlimit="10.0"><path d="M 404.2583,432.5451 ZM 409.0085,421.7588 c -0.2073,1.0119 -0.2881,1.9500 -0.2881 2.7405c 0.0000,6.0080 2.0027,7.2026 4.2161 7.2026c 1.7216,-0.0000 3.1972,-1.7567 3.1972 -5.6215c 0.0000,-1.7567 -0.7730,-5.1296 -4.2161 -5.1296c -0.6113,-0.0000 -1.7567,0.0492 -2.9091 0.8081ZM 409.0085,421.7588 ZM 409.3282,420.4835 c 1.0470,-0.4813 2.4137,-0.7624 3.3272 -0.7624c 4.7783,-0.0000 6.3945,2.7054 6.3945 5.7269c 0.0000,3.0216 -1.8973,7.4837 -6.4999 7.4837c -2.7054,-0.0000 -6.7458,-1.4054 -6.7458 -8.5377c 0.0000,-2.7756 1.0892,-5.9729 3.2675 -8.5026c 1.9675,-2.2837 4.1459,-3.7594 7.6945 -4.8134c 0.2811,0.1757 0.4216,0.4919 0.4216 0.9135c -4.6729,1.7497 -6.9075,5.2983 -7.8596 8.4920Z"/></g><g stroke-linejoin="miter" stroke-opacity="1.0" fill-opacity="1.0" stroke="rgb(255,255,255)" stroke-width="9.256394417268465" fill="rgb(255,255,255)" stroke-linecap="butt" stroke-miterlimit="10.0"><path d="M 388.1667,456.8056 l -0.0000,-48.5208 h -48.5208 l -0.0000,48.5208 Z"/></g><g stroke-linejoin="miter" stroke-opacity="1.0" fill-opacity="1.0" stroke="rgb(0,0,0)" stroke-width="0.9256394417268465" fill="rgb(0,0,0)" stroke-linecap="butt" stroke-miterlimit="10.0"><path d="M 355.7375,432.5451 ZM 361.7104,413.7482 c -1.1243,-0.0000 -2.2837,0.2459 -3.0567 3.0567c -0.3865,0.0457 -0.7413,0.0035 -1.1243 -0.1054c 0.2811,-1.8270 0.6676,-3.9351 0.7027 -5.6215c 0.0000,-0.1054 0.0351,-0.1054 0.1405 -0.1054c 0.6324,0.1405 0.5622,0.4919 1.7567 0.4919h 7.2377 c 1.3351,-0.0000 2.1081,-0.2108 2.7054 -0.3865l 0.5622,0.4216 c -3.9351,9.5917 -5.8675,15.4241 -7.8701 21.3970l -2.3892,0.1054 l -0.2811,-0.2459 c 2.3892,-5.3405 5.1648,-12.1917 7.9053 -19.0078h -6.2891 Z"/></g><g stroke-linejoin="miter" stroke-opacity="1.0" fill-opacity="1.0" stroke="rgb(255,255,255)" stroke-width="9.256394417268465" fill="rgb(255,255,255)" stroke-linecap="butt" stroke-miterlimit="10.0"><path d="M 339.6458,456.8056 l -0.0000,-48.5208 h -48.5208 l -0.0000,48.5208 Z"/></g><g stroke-linejoin="miter" stroke-opacity="1.0" fill-opacity="1.0" stroke="rgb(0,0,0)" stroke-width="0.9256394417268465" fill="rgb(0,0,0)" stroke-linecap="butt" stroke-miterlimit="10.0"><path d="M 307.2166,432.5451 ZM 313.1895,413.7482 c -1.1243,-0.0000 -2.2837,0.2459 -3.0567 3.0567c -0.3865,0.0457 -0.7413,0.0035 -1.1243 -0.1054c 0.2811,-1.8270 0.6676,-3.9351 0.7027 -5.6215c 0.0000,-0.1054 0.0351,-0.1054 0.1405 -0.1054c 0.6324,0.1405 0.5622,0.4919 1.7567 0.4919h 7.2377 c 1.3351,-0.0000 2.1081,-0.2108 2.7054 -0.3865l 0.5622,0.4216 c -3.9351,9.5917 -5.8675,15.4241 -7.8701 21.3970l -2.3892,0.1054 l -0.2811,-0.2459 c 2.3892,-5.3405 5.1648,-12.1917 7.9053 -19.0078h -6.2891 Z"/></g><g stroke-linejoin="miter" stroke-opacity="1.0" fill-opacity="1.0" stroke="rgb(255,255,255)" stroke-width="9.256394417268465" fill="rgb(255,255,255)" stroke-linecap="butt" stroke-miterlimit="10.0"><path d="M 291.1250,456.8056 l -0.0000,-48.5208 h -48.5208 l -0.0000,48.5208 Z"/></g><g stroke-linejoin="miter" stroke-opacity="1.0" fill-opacity="1.0" stroke="rgb(0,0,0)" stroke-width="0.9256394417268465" fill="rgb(0,0,0)" stroke-linecap="butt" stroke-miterlimit="10.0"><path d="M 258.6958,432.5451 ZM 268.2173,414.7319 c -2.4243,3.3097 -4.9083,7.2307 -6.7107 10.1188h 6.7107 v -10.1188 ZM 268.2173,414.7319 ZM 273.8037,424.8507 c 0.3865,-0.0000 0.5270,0.2108 0.5270 0.5622c 0.0000,0.4216 -0.5270,1.0892 -1.0189 1.0892h -2.4243 v 3.2324 c 0.0000,1.6513 0.7378,1.5811 2.4594 1.7216c 0.2108,0.2108 0.2108,0.9486 0.0000 1.1594c -1.1243,-0.0351 -2.4454,-0.0703 -3.8297 -0.0703c -1.6162,-0.0000 -3.0216,0.0351 -4.1459 0.0703c -0.2108,-0.2108 -0.2108,-0.9486 0.0000 -1.1594c 1.5108,-0.1054 2.8459,-0.1054 2.8459 -1.7216v -3.2324 h -7.1675 c -1.0540,-0.0000 -1.2648,-0.9486 -1.3702 -1.4757c 3.2148,-5.0242 7.3080,-10.8039 9.5215 -13.5268c 0.1300,-0.1581 0.3162,-0.3865 0.5622 -0.3865h 1.1243 l 0.0703,0.0703 c -0.0597,0.2740 -0.0703,1.6513 -0.0703 3.4081v 10.2593 h 2.9162 Z"/></g><g stroke-linejoin="miter" stroke-opacity="1.0" fill-opacity="1.0" stroke="rgb(255,255,255)" stroke-width="9.256394417268465" fill="rgb(255,255,255)" stroke-linecap="butt" stroke-miterlimit="10.0"><path d="M 242.6042,456.8056 l -0.0000,-48.5208 h -48.5208 l -0.0000,48.5208 Z"/></g><g stroke-linejoin="miter" stroke-opacity="1.0" fill-opacity="1.0" stroke="rgb(0,0,0)" stroke-width="0.9256394417268465" fill="rgb(0,0,0)" stroke-linecap="butt" stroke-miterlimit="10.0"><path d="M 210.1750,432.5451 ZM 217.7289,412.3428 c -0.9135,-0.0000 -3.3378,0.4216 -3.3378 2.6702c 0.0000,0.6676 -0.1405,1.8270 -1.3702 1.8270c -0.8432,-0.0000 -1.1946,-0.7027 -1.1946 -1.1946c 0.0000,-1.1594 1.4757,-4.5324 6.6404 -4.5324c 1.8375,-0.0000 3.0637,0.5938 3.8297 1.3702c 0.8538,0.8643 1.0997,1.7251 1.0997 2.7791c 0.0000,1.8516 -0.8081,3.3132 -3.6997 4.6694l 0.0351,0.0703 c 2.0729,0.3513 4.9540,1.7216 4.9540 5.5513c 0.0000,4.6378 -3.7243,7.3431 -7.9053 7.3431c -2.1081,-0.0000 -5.0594,-0.9486 -5.0594 -2.3540c 0.0000,-0.5622 0.7378,-1.2297 1.4757 -1.2297c 0.7027,-0.0000 1.1594,0.4216 1.5108 0.9135c 0.4216,0.6324 0.7378,1.4405 2.5297 1.4405c 1.2297,-0.0000 4.3567,-0.9486 4.3567 -5.6215c 0.0000,-3.9702 -2.6000,-4.5324 -4.6026 -4.5324c -0.4567,-0.0000 -1.0892,-0.0000 -1.6865 0.0703l -0.1757,-1.1243 c 3.4818,-0.4954 5.5196,-3.1797 5.5196 -4.9434c 0.0000,-2.2592 -1.4019,-3.1727 -2.9197 -3.1727Z"/></g><g stroke-linejoin="miter" stroke-opacity="1.0" fill-opacity="1.0" stroke="rgb(255,255,255)" stroke-width="9.256394417268465" fill="rgb(255,255,255)" stroke-linecap="butt" stroke-miterlimit="10.0"><path d="M 194.0833,456.8056 l -0.0000,-48.5208 h -48.5208 l -0.0000,48.5208 Z"/></g><g stroke-linejoin="miter" stroke-opacity="1.0" fill-opacity="1.0" stroke="rgb(0,0,0)" stroke-width="0.9256394417268465" fill="rgb(0,0,0)" stroke-linecap="butt" stroke-miterlimit="10.0"><path d="M 161.6541,432.5451 ZM 163.7973,416.1022 c 0.0000,-2.1081 2.4243,-4.9891 6.3242 -4.9891c 2.8459,-0.0000 5.9377,1.5459 5.9377 5.3405c 0.0000,2.6702 -1.5108,4.2161 -3.5135 6.1485l -3.5486,3.4081 c -0.1757,0.1757 -2.6000,2.5648 -2.6000 4.2513h 6.2540 c 1.2648,-0.0000 1.8621,-0.8784 2.4594 -3.3729c 0.3513,-0.0703 0.8081,-0.0000 1.0189 0.1757c -0.0351,1.0540 -0.3865,3.6891 -0.8432 5.5513c 0.0000,-0.0000 -1.6162,-0.0703 -2.7405 -0.0703h -6.1485 c -1.1243,-0.0000 -2.9162,0.0703 -2.9162 0.0703c 0.0000,-2.0729 0.5622,-3.7594 4.0053 -7.2729l 2.6000,-2.5648 c 2.0729,-2.1081 2.8810,-3.9351 2.8810 -6.1837c 0.0000,-3.3729 -1.7919,-4.2513 -3.0567 -4.2513c -2.5648,-0.0000 -3.4783,1.2648 -3.4783 2.1432c 0.0000,0.2811 0.2108,0.5973 0.2811 0.8432c 0.0703,0.2459 0.1405,0.4567 0.1405 0.7378c 0.0000,0.7765 -1.0540,1.4054 -1.6513 1.4054c -0.7378,-0.0000 -1.4054,-0.6324 -1.4054 -1.3702Z"/></g><g stroke-linejoin="miter" stroke-opacity="1.0" fill-opacity="1.0" stroke="rgb(255,255,255)" stroke-width="9.256394417268465" fill="rgb(255,255,255)" stroke-linecap="butt" stroke-miterlimit="10.0"><path d="M 145.5625,456.8056 l -0.0000,-48.5208 h -48.5208 l -0.0000,48.5208 Z"/></g><g stroke-linejoin="miter" stroke-opacity="1.0" fill-opacity="1.0" stroke="rgb(0,0,0)" stroke-width="0.9256394417268465" fill="rgb(0,0,0)" stroke-linecap="butt" stroke-miterlimit="10.0"><path d="M 113.1333,432.5451 ZM 123.2521,428.2587 c 0.0000,2.9162 0.5973,3.0918 3.0567 3.1972c 0.2108,0.2108 0.2108,0.9486 0.0000 1.1594c -1.7567,-0.0351 -2.6140,-0.0703 -4.2864 -0.0703c -1.9043,-0.0000 -3.1621,0.0351 -4.8837 0.0703c -0.2108,-0.2108 -0.2108,-0.9486 0.0000 -1.1594c 2.4594,-0.1054 3.4081,-0.2811 3.4081 -3.1972v -11.4539 c 0.0000,-1.1946 -0.1230,-2.0378 -0.7027 -2.0378c -0.6676,-0.0000 -1.4581,0.2108 -3.0567 0.8784c -0.3162,-0.2143 -0.4708,-0.5481 -0.5270 -0.9486c 3.0918,-1.4405 4.9434,-2.3083 6.8864 -3.5135c 0.1230,-0.0000 0.2108,0.0070 0.2108 0.1757c -0.0597,0.4567 -0.1054,2.6000 -0.1054 4.7080v 12.1917 Z"/></g><g stroke-linejoin="miter" stroke-opacity="1.0" fill-opacity="1.0" stroke="rgb(255,255,255)" stroke-width="9.256394417268465" fill="rgb(255,255,255)" stroke-linecap="butt" stroke-miterlimit="10.0"><path d="M 97.0417,456.8056 l -0.0000,-48.5208 h -48.5208 l -0.0000,48.5208 Z"/></g><g stroke-linejoin="miter" stroke-opacity="1.0" fill-opacity="1.0" stroke="rgb(0,0,0)" stroke-width="0.9256394417268465" fill="rgb(0,0,0)" stroke-linecap="butt" stroke-miterlimit="10.0"><path d="M 64.6125,432.5451 ZM 75.8204,425.9047 c 0.0000,-3.8297 -1.7919,-5.3405 -4.0756 -5.3405c -1.2648,-0.0000 -2.6000,0.1405 -4.4621 0.8432l 1.1946,-10.1188 c 1.2297,0.1054 2.4946,0.1757 3.7945 0.1757c 1.8621,-0.0000 3.7594,-0.1757 5.7621 -0.3865l 0.2459,0.1405 l -0.5622,2.3892 c -1.4405,0.1405 -2.6351,0.2108 -3.6891 0.2108c -1.6865,-0.0000 -2.8108,-0.1757 -4.1107 -0.3162l -0.7027,5.8675 c 0.6324,-0.2459 1.9324,-0.5622 3.4432 -0.5622c 3.9351,-0.0000 6.2891,3.0567 6.2891 6.4648c 0.0000,4.4270 -3.0918,7.6593 -7.4485 7.6593c -2.0027,-0.0000 -4.9891,-1.1946 -4.9891 -2.6351c 0.0000,-0.7027 0.6676,-1.3000 1.3351 -1.3000c 0.7378,-0.0000 1.3351,0.5270 1.7919 1.1243c 0.5270,0.7027 0.9838,1.5811 2.3189 1.5811c 2.1081,-0.0000 3.8648,-2.4594 3.8648 -5.7972Z"/></g><g stroke-linejoin="miter" stroke-opacity="1.0" fill-opacity="1.0" stroke="rgb(255,255,255)" stroke-width="9.256394417268465" fill="rgb(255,255,255)" stroke-linecap="butt" stroke-miterlimit="10.0"><path d="M 48.5208,456.8056 l -0.0000,-48.5208 h -48.5208 l -0.0000,48.5208 Z"/></g><g stroke-linejoin="miter" stroke-opacity="1.0" fill-opacity="1.0" stroke="rgb(0,0,0)" stroke-width="0.9256394417268465" fill="rgb(0,0,0)" stroke-linecap="butt" stroke-miterlimit="10.0"><path d="M 16.0916,432.5451 ZM 18.2348,416.1022 c 0.0000,-2.1081 2.4243,-4.9891 6.3242 -4.9891c 2.8459,-0.0000 5.9377,1.5459 5.9377 5.3405c 0.0000,2.6702 -1.5108,4.2161 -3.5135 6.1485l -3.5486,3.4081 c -0.1757,0.1757 -2.6000,2.5648 -2.6000 4.2513h 6.2540 c 1.2648,-0.0000 1.8621,-0.8784 2.4594 -3.3729c 0.3513,-0.0703 0.8081,-0.0000 1.0189 0.1757c -0.0351,1.0540 -0.3865,3.6891 -0.8432 5.5513c 0.0000,-0.0000 -1.6162,-0.0703 -2.7405 -0.0703h -6.1485 c -1.1243,-0.0000 -2.9162,0.0703 -2.9162 0.0703c 0.0000,-2.0729 0.5622,-3.7594 4.0053 -7.2729l 2.6000,-2.5648 c 2.0729,-2.1081 2.8810,-3.9351 2.8810 -6.1837c 0.0000,-3.3729 -1.7919,-4.2513 -3.0567 -4.2513c -2.5648,-0.0000 -3.4783,1.2648 -3.4783 2.1432c 0.0000,0.2811 0.2108,0.5973 0.2811 0.8432c 0.0703,0.2459 0.1405,0.4567 0.1405 0.7378c 0.0000,0.7765 -1.0540,1.4054 -1.6513 1.4054c -0.7378,-0.0000 -1.4054,-0.6324 -1.4054 -1.3702Z"/></g><g stroke-linejoin="miter" stroke-opacity="1.0" fill-opacity="1.0" stroke="rgb(255,255,255)" stroke-width="9.256394417268465" fill="rgb(169,169,169)" stroke-linecap="butt" stroke-miterlimit="10.0"><path d="M 436.6875,388.1667 l -0.0000,-48.5208 h -48.5208 l -0.0000,48.5208 Z"/></g><g stroke-linejoin="miter" stroke-opacity="1.0" fill-opacity="1.0" stroke="rgb(255,255,255)" stroke-width="9.256394417268465" fill="rgb(169,169,169)" stroke-linecap="butt" stroke-miterlimit="10.0"><path d="M 436.6875,339.6458 l -0.0000,-48.5208 h -48.5208 l -0.0000,48.5208 Z"/></g><g stroke-linejoin="miter" stroke-opacity="1.0" fill-opacity="1.0" stroke="rgb(255,255,255)" stroke-width="9.256394417268465" fill="rgb(169,169,169)" stroke-linecap="butt" stroke-miterlimit="10.0"><path d="M 436.6875,291.1250 l -0.0000,-48.5208 h -48.5208 l -0.0000,48.5208 Z"/></g><g stroke-linejoin="miter" stroke-opacity="1.0" fill-opacity="1.0" stroke="rgb(255,255,255)" stroke-width="9.256394417268465" fill="rgb(169,169,169)" stroke-linecap="butt" stroke-miterlimit="10.0"><path d="M 436.6875,242.6042 l -0.0000,-48.5208 h -48.5208 l -0.0000,48.5208 Z"/></g><g stroke-linejoin="miter" stroke-opacity="1.0" fill-opacity="1.0" stroke="rgb(255,255,255)" stroke-width="9.256394417268465" fill="rgb(169,169,169)" stroke-linecap="butt" stroke-miterlimit="10.0"><path d="M 436.6875,194.0833 l -0.0000,-48.5208 h -48.5208 l -0.0000,48.5208 Z"/></g><g stroke-linejoin="miter" stroke-opacity="1.0" fill-opacity="1.0" stroke="rgb(255,255,255)" stroke-width="9.256394417268465" fill="rgb(169,169,169)" stroke-linecap="butt" stroke-miterlimit="10.0"><path d="M 436.6875,145.5625 l -0.0000,-48.5208 h -48.5208 l -0.0000,48.5208 Z"/></g><g stroke-linejoin="miter" stroke-opacity="1.0" fill-opacity="1.0" stroke="rgb(255,255,255)" stroke-width="9.256394417268465" fill="rgb(211,211,211)" stroke-linecap="butt" stroke-miterlimit="10.0"><path d="M 436.6875,97.0417 l -0.0000,-48.5208 h -48.5208 l -0.0000,48.5208 Z"/></g><g stroke-linejoin="miter" stroke-opacity="1.0" fill-opacity="1.0" stroke="rgb(255,255,255)" stroke-width="9.256394417268465" fill="rgb(211,211,211)" stroke-linecap="butt" stroke-miterlimit="10.0"><path d="M 436.6875,48.5208 l -0.0000,-48.5208 h -48.5208 l -0.0000,48.5208 Z"/></g><g stroke-linejoin="miter" stroke-opacity="1.0" fill-opacity="1.0" stroke="rgb(255,255,255)" stroke-width="9.256394417268465" fill="rgb(169,169,169)" stroke-linecap="butt" stroke-miterlimit="10.0"><path d="M 388.1667,388.1667 l -0.0000,-48.5208 h -48.5208 l -0.0000,48.5208 Z"/></g><g stroke-linejoin="miter" stroke-opacity="1.0" fill-opacity="1.0" stroke="rgb(255,255,255)" stroke-width="9.256394417268465" fill="rgb(169,169,169)" stroke-linecap="butt" stroke-miterlimit="10.0"><path d="M 388.1667,339.6458 l -0.0000,-48.5208 h -48.5208 l -0.0000,48.5208 Z"/></g><g stroke-linejoin="miter" stroke-opacity="1.0" fill-opacity="1.0" stroke="rgb(255,255,255)" stroke-width="9.256394417268465" fill="rgb(169,169,169)" stroke-linecap="butt" stroke-miterlimit="10.0"><path d="M 388.1667,291.1250 l -0.0000,-48.5208 h -48.5208 l -0.0000,48.5208 Z"/></g><g stroke-linejoin="miter" stroke-opacity="1.0" fill-opacity="1.0" stroke="rgb(255,255,255)" stroke-width="9.256394417268465" fill="rgb(169,169,169)" stroke-linecap="butt" stroke-miterlimit="10.0"><path d="M 388.1667,242.6042 l -0.0000,-48.5208 h -48.5208 l -0.0000,48.5208 Z"/></g><g stroke-linejoin="miter" stroke-opacity="1.0" fill-opacity="1.0" stroke="rgb(255,255,255)" stroke-width="9.256394417268465" fill="rgb(169,169,169)" stroke-linecap="butt" stroke-miterlimit="10.0"><path d="M 388.1667,194.0833 l -0.0000,-48.5208 h -48.5208 l -0.0000,48.5208 Z"/></g><g stroke-linejoin="miter" stroke-opacity="1.0" fill-opacity="1.0" stroke="rgb(255,255,255)" stroke-width="9.256394417268465" fill="rgb(169,169,169)" stroke-linecap="butt" stroke-miterlimit="10.0"><path d="M 388.1667,145.5625 l -0.0000,-48.5208 h -48.5208 l -0.0000,48.5208 Z"/></g><g stroke-linejoin="miter" stroke-opacity="1.0" fill-opacity="1.0" stroke="rgb(255,255,255)" stroke-width="9.256394417268465" fill="rgb(169,169,169)" stroke-linecap="butt" stroke-miterlimit="10.0"><path d="M 388.1667,97.0417 l -0.0000,-48.5208 h -48.5208 l -0.0000,48.5208 Z"/></g><g stroke-linejoin="miter" stroke-opacity="1.0" fill-opacity="1.0" stroke="rgb(255,255,255)" stroke-width="9.256394417268465" fill="rgb(211,211,211)" stroke-linecap="butt" stroke-miterlimit="10.0"><path d="M 388.1667,48.5208 l -0.0000,-48.5208 h -48.5208 l -0.0000,48.5208 Z"/></g><g stroke-linejoin="miter" stroke-opacity="1.0" fill-opacity="1.0" stroke="rgb(255,255,255)" stroke-width="9.256394417268465" fill="rgb(169,169,169)" stroke-linecap="butt" stroke-miterlimit="10.0"><path d="M 339.6458,388.1667 l -0.0000,-48.5208 h -48.5208 l -0.0000,48.5208 Z"/></g><g stroke-linejoin="miter" stroke-opacity="1.0" fill-opacity="1.0" stroke="rgb(255,255,255)" stroke-width="9.256394417268465" fill="rgb(169,169,169)" stroke-linecap="butt" stroke-miterlimit="10.0"><path d="M 339.6458,339.6458 l -0.0000,-48.5208 h -48.5208 l -0.0000,48.5208 Z"/></g><g stroke-linejoin="miter" stroke-opacity="1.0" fill-opacity="1.0" stroke="rgb(255,255,255)" stroke-width="9.256394417268465" fill="rgb(169,169,169)" stroke-linecap="butt" stroke-miterlimit="10.0"><path d="M 339.6458,291.1250 l -0.0000,-48.5208 h -48.5208 l -0.0000,48.5208 Z"/></g><g stroke-linejoin="miter" stroke-opacity="1.0" fill-opacity="1.0" stroke="rgb(255,255,255)" stroke-width="9.256394417268465" fill="rgb(169,169,169)" stroke-linecap="butt" stroke-miterlimit="10.0"><path d="M 339.6458,242.6042 l -0.0000,-48.5208 h -48.5208 l -0.0000,48.5208 Z"/></g><g stroke-linejoin="miter" stroke-opacity="1.0" fill-opacity="1.0" stroke="rgb(255,255,255)" stroke-width="9.256394417268465" fill="rgb(169,169,169)" stroke-linecap="butt" stroke-miterlimit="10.0"><path d="M 339.6458,194.0833 l -0.0000,-48.5208 h -48.5208 l -0.0000,48.5208 Z"/></g><g stroke-linejoin="miter" stroke-opacity="1.0" fill-opacity="1.0" stroke="rgb(255,255,255)" stroke-width="9.256394417268465" fill="rgb(169,169,169)" stroke-linecap="butt" stroke-miterlimit="10.0"><path d="M 339.6458,145.5625 l -0.0000,-48.5208 h -48.5208 l -0.0000,48.5208 Z"/></g><g stroke-linejoin="miter" stroke-opacity="1.0" fill-opacity="1.0" stroke="rgb(255,255,255)" stroke-width="9.256394417268465" fill="rgb(169,169,169)" stroke-linecap="butt" stroke-miterlimit="10.0"><path d="M 339.6458,97.0417 l -0.0000,-48.5208 h -48.5208 l -0.0000,48.5208 Z"/></g><g stroke-linejoin="miter" stroke-opacity="1.0" fill-opacity="1.0" stroke="rgb(255,255,255)" stroke-width="9.256394417268465" fill="rgb(211,211,211)" stroke-linecap="butt" stroke-miterlimit="10.0"><path d="M 339.6458,48.5208 l -0.0000,-48.5208 h -48.5208 l -0.0000,48.5208 Z"/></g><g stroke-linejoin="miter" stroke-opacity="1.0" fill-opacity="1.0" stroke="rgb(255,255,255)" stroke-width="9.256394417268465" fill="rgb(169,169,169)" stroke-linecap="butt" stroke-miterlimit="10.0"><path d="M 291.1250,388.1667 l -0.0000,-48.5208 h -48.5208 l -0.0000,48.5208 Z"/></g><g stroke-linejoin="miter" stroke-opacity="1.0" fill-opacity="1.0" stroke="rgb(255,255,255)" stroke-width="9.256394417268465" fill="rgb(169,169,169)" stroke-linecap="butt" stroke-miterlimit="10.0"><path d="M 291.1250,339.6458 l -0.0000,-48.5208 h -48.5208 l -0.0000,48.5208 Z"/></g><g stroke-linejoin="miter" stroke-opacity="1.0" fill-opacity="1.0" stroke="rgb(255,255,255)" stroke-width="9.256394417268465" fill="rgb(169,169,169)" stroke-linecap="butt" stroke-miterlimit="10.0"><path d="M 291.1250,291.1250 l -0.0000,-48.5208 h -48.5208 l -0.0000,48.5208 Z"/></g><g stroke-linejoin="miter" stroke-opacity="1.0" fill-opacity="1.0" stroke="rgb(255,255,255)" stroke-width="9.256394417268465" fill="rgb(169,169,169)" stroke-linecap="butt" stroke-miterlimit="10.0"><path d="M 291.1250,242.6042 l -0.0000,-48.5208 h -48.5208 l -0.0000,48.5208 Z"/></g><g stroke-linejoin="miter" stroke-opacity="1.0" fill-opacity="1.0" stroke="rgb(255,255,255)" stroke-width="9.256394417268465" fill="rgb(211,211,211)" stroke-linecap="butt" stroke-miterlimit="10.0"><path d="M 291.1250,194.0833 l -0.0000,-48.5208 h -48.5208 l -0.0000,48.5208 Z"/></g><g stroke-linejoin="miter" stroke-opacity="1.0" fill-opacity="1.0" stroke="rgb(255,255,255)" stroke-width="9.256394417268465" fill="rgb(211,211,211)" stroke-linecap="butt" stroke-miterlimit="10.0"><path d="M 291.1250,145.5625 l -0.0000,-48.5208 h -48.5208 l -0.0000,48.5208 Z"/></g><g stroke-linejoin="miter" stroke-opacity="1.0" fill-opacity="1.0" stroke="rgb(255,255,255)" stroke-width="9.256394417268465" fill="rgb(211,211,211)" stroke-linecap="butt" stroke-miterlimit="10.0"><path d="M 291.1250,97.0417 l -0.0000,-48.5208 h -48.5208 l -0.0000,48.5208 Z"/></g><g stroke-linejoin="miter" stroke-opacity="1.0" fill-opacity="1.0" stroke="rgb(255,255,255)" stroke-width="9.256394417268465" fill="rgb(211,211,211)" stroke-linecap="butt" stroke-miterlimit="10.0"><path d="M 291.1250,48.5208 l -0.0000,-48.5208 h -48.5208 l -0.0000,48.5208 Z"/></g><g stroke-linejoin="miter" stroke-opacity="1.0" fill-opacity="1.0" stroke="rgb(255,255,255)" stroke-width="9.256394417268465" fill="rgb(169,169,169)" stroke-linecap="butt" stroke-miterlimit="10.0"><path d="M 242.6042,388.1667 l -0.0000,-48.5208 h -48.5208 l -0.0000,48.5208 Z"/></g><g stroke-linejoin="miter" stroke-opacity="1.0" fill-opacity="1.0" stroke="rgb(255,255,255)" stroke-width="9.256394417268465" fill="rgb(169,169,169)" stroke-linecap="butt" stroke-miterlimit="10.0"><path d="M 242.6042,339.6458 l -0.0000,-48.5208 h -48.5208 l -0.0000,48.5208 Z"/></g><g stroke-linejoin="miter" stroke-opacity="1.0" fill-opacity="1.0" stroke="rgb(255,255,255)" stroke-width="9.256394417268465" fill="rgb(169,169,169)" stroke-linecap="butt" stroke-miterlimit="10.0"><path d="M 242.6042,291.1250 l -0.0000,-48.5208 h -48.5208 l -0.0000,48.5208 Z"/></g><g stroke-linejoin="miter" stroke-opacity="1.0" fill-opacity="1.0" stroke="rgb(255,255,255)" stroke-width="9.256394417268465" fill="rgb(211,211,211)" stroke-linecap="butt" stroke-miterlimit="10.0"><path d="M 242.6042,242.6042 l -0.0000,-48.5208 h -48.5208 l -0.0000,48.5208 Z"/></g><g stroke-linejoin="miter" stroke-opacity="1.0" fill-opacity="1.0" stroke="rgb(255,255,255)" stroke-width="9.256394417268465" fill="rgb(211,211,211)" stroke-linecap="butt" stroke-miterlimit="10.0"><path d="M 242.6042,194.0833 l -0.0000,-48.5208 h -48.5208 l -0.0000,48.5208 Z"/></g><g stroke-linejoin="miter" stroke-opacity="1.0" fill-opacity="1.0" stroke="rgb(255,255,255)" stroke-width="9.256394417268465" fill="rgb(211,211,211)" stroke-linecap="butt" stroke-miterlimit="10.0"><path d="M 242.6042,145.5625 l -0.0000,-48.5208 h -48.5208 l -0.0000,48.5208 Z"/></g><g stroke-linejoin="miter" stroke-opacity="1.0" fill-opacity="1.0" stroke="rgb(255,255,255)" stroke-width="9.256394417268465" fill="rgb(211,211,211)" stroke-linecap="butt" stroke-miterlimit="10.0"><path d="M 242.6042,97.0417 l -0.0000,-48.5208 h -48.5208 l -0.0000,48.5208 Z"/></g><g stroke-linejoin="miter" stroke-opacity="1.0" fill-opacity="1.0" stroke="rgb(255,255,255)" stroke-width="9.256394417268465" fill="rgb(211,211,211)" stroke-linecap="butt" stroke-miterlimit="10.0"><path d="M 242.6042,48.5208 l -0.0000,-48.5208 h -48.5208 l -0.0000,48.5208 Z"/></g><g stroke-linejoin="miter" stroke-opacity="1.0" fill-opacity="1.0" stroke="rgb(255,255,255)" stroke-width="9.256394417268465" fill="rgb(169,169,169)" stroke-linecap="butt" stroke-miterlimit="10.0"><path d="M 194.0833,388.1667 l -0.0000,-48.5208 h -48.5208 l -0.0000,48.5208 Z"/></g><g stroke-linejoin="miter" stroke-opacity="1.0" fill-opacity="1.0" stroke="rgb(255,255,255)" stroke-width="9.256394417268465" fill="rgb(169,169,169)" stroke-linecap="butt" stroke-miterlimit="10.0"><path d="M 194.0833,339.6458 l -0.0000,-48.5208 h -48.5208 l -0.0000,48.5208 Z"/></g><g stroke-linejoin="miter" stroke-opacity="1.0" fill-opacity="1.0" stroke="rgb(255,255,255)" stroke-width="9.256394417268465" fill="rgb(211,211,211)" stroke-linecap="butt" stroke-miterlimit="10.0"><path d="M 194.0833,291.1250 l -0.0000,-48.5208 h -48.5208 l -0.0000,48.5208 Z"/></g><g stroke-linejoin="miter" stroke-opacity="1.0" fill-opacity="1.0" stroke="rgb(255,255,255)" stroke-width="9.256394417268465" fill="rgb(211,211,211)" stroke-linecap="butt" stroke-miterlimit="10.0"><path d="M 194.0833,242.6042 l -0.0000,-48.5208 h -48.5208 l -0.0000,48.5208 Z"/></g><g stroke-linejoin="miter" stroke-opacity="1.0" fill-opacity="1.0" stroke="rgb(255,255,255)" stroke-width="9.256394417268465" fill="rgb(211,211,211)" stroke-linecap="butt" stroke-miterlimit="10.0"><path d="M 194.0833,194.0833 l -0.0000,-48.5208 h -48.5208 l -0.0000,48.5208 Z"/></g><g stroke-linejoin="miter" stroke-opacity="1.0" fill-opacity="1.0" stroke="rgb(255,255,255)" stroke-width="9.256394417268465" fill="rgb(211,211,211)" stroke-linecap="butt" stroke-miterlimit="10.0"><path d="M 194.0833,145.5625 l -0.0000,-48.5208 h -48.5208 l -0.0000,48.5208 Z"/></g><g stroke-linejoin="miter" stroke-opacity="1.0" fill-opacity="1.0" stroke="rgb(255,255,255)" stroke-width="9.256394417268465" fill="rgb(211,211,211)" stroke-linecap="butt" stroke-miterlimit="10.0"><path d="M 194.0833,97.0417 l -0.0000,-48.5208 h -48.5208 l -0.0000,48.5208 Z"/></g><g stroke-linejoin="miter" stroke-opacity="1.0" fill-opacity="1.0" stroke="rgb(255,255,255)" stroke-width="9.256394417268465" fill="rgb(211,211,211)" stroke-linecap="butt" stroke-miterlimit="10.0"><path d="M 194.0833,48.5208 l -0.0000,-48.5208 h -48.5208 l -0.0000,48.5208 Z"/></g><g stroke-linejoin="miter" stroke-opacity="1.0" fill-opacity="1.0" stroke="rgb(255,255,255)" stroke-width="9.256394417268465" fill="rgb(169,169,169)" stroke-linecap="butt" stroke-miterlimit="10.0"><path d="M 145.5625,388.1667 l -0.0000,-48.5208 h -48.5208 l -0.0000,48.5208 Z"/></g><g stroke-linejoin="miter" stroke-opacity="1.0" fill-opacity="1.0" stroke="rgb(255,255,255)" stroke-width="9.256394417268465" fill="rgb(211,211,211)" stroke-linecap="butt" stroke-miterlimit="10.0"><path d="M 145.5625,339.6458 l -0.0000,-48.5208 h -48.5208 l -0.0000,48.5208 Z"/></g><g stroke-linejoin="miter" stroke-opacity="1.0" fill-opacity="1.0" stroke="rgb(255,255,255)" stroke-width="9.256394417268465" fill="rgb(211,211,211)" stroke-linecap="butt" stroke-miterlimit="10.0"><path d="M 145.5625,291.1250 l -0.0000,-48.5208 h -48.5208 l -0.0000,48.5208 Z"/></g><g stroke-linejoin="miter" stroke-opacity="1.0" fill-opacity="1.0" stroke="rgb(255,255,255)" stroke-width="9.256394417268465" fill="rgb(211,211,211)" stroke-linecap="butt" stroke-miterlimit="10.0"><path d="M 145.5625,242.6042 l -0.0000,-48.5208 h -48.5208 l -0.0000,48.5208 Z"/></g><g stroke-linejoin="miter" stroke-opacity="1.0" fill-opacity="1.0" stroke="rgb(255,255,255)" stroke-width="9.256394417268465" fill="rgb(211,211,211)" stroke-linecap="butt" stroke-miterlimit="10.0"><path d="M 145.5625,194.0833 l -0.0000,-48.5208 h -48.5208 l -0.0000,48.5208 Z"/></g><g stroke-linejoin="miter" stroke-opacity="1.0" fill-opacity="1.0" stroke="rgb(255,255,255)" stroke-width="9.256394417268465" fill="rgb(211,211,211)" stroke-linecap="butt" stroke-miterlimit="10.0"><path d="M 145.5625,145.5625 l -0.0000,-48.5208 h -48.5208 l -0.0000,48.5208 Z"/></g><g stroke-linejoin="miter" stroke-opacity="1.0" fill-opacity="1.0" stroke="rgb(255,255,255)" stroke-width="9.256394417268465" fill="rgb(211,211,211)" stroke-linecap="butt" stroke-miterlimit="10.0"><path d="M 145.5625,97.0417 l -0.0000,-48.5208 h -48.5208 l -0.0000,48.5208 Z"/></g><g stroke-linejoin="miter" stroke-opacity="1.0" fill-opacity="1.0" stroke="rgb(255,255,255)" stroke-width="9.256394417268465" fill="rgb(211,211,211)" stroke-linecap="butt" stroke-miterlimit="10.0"><path d="M 145.5625,48.5208 l -0.0000,-48.5208 h -48.5208 l -0.0000,48.5208 Z"/></g><g stroke-linejoin="miter" stroke-opacity="1.0" fill-opacity="1.0" stroke="rgb(255,255,255)" stroke-width="9.256394417268465" fill="rgb(169,169,169)" stroke-linecap="butt" stroke-miterlimit="10.0"><path d="M 97.0417,388.1667 l -0.0000,-48.5208 h -48.5208 l -0.0000,48.5208 Z"/></g><g stroke-linejoin="miter" stroke-opacity="1.0" fill-opacity="1.0" stroke="rgb(255,255,255)" stroke-width="9.256394417268465" fill="rgb(169,169,169)" stroke-linecap="butt" stroke-miterlimit="10.0"><path d="M 97.0417,339.6458 l -0.0000,-48.5208 h -48.5208 l -0.0000,48.5208 Z"/></g><g stroke-linejoin="miter" stroke-opacity="1.0" fill-opacity="1.0" stroke="rgb(255,255,255)" stroke-width="9.256394417268465" fill="rgb(169,169,169)" stroke-linecap="butt" stroke-miterlimit="10.0"><path d="M 97.0417,291.1250 l -0.0000,-48.5208 h -48.5208 l -0.0000,48.5208 Z"/></g><g stroke-linejoin="miter" stroke-opacity="1.0" fill-opacity="1.0" stroke="rgb(255,255,255)" stroke-width="9.256394417268465" fill="rgb(169,169,169)" stroke-linecap="butt" stroke-miterlimit="10.0"><path d="M 97.0417,242.6042 l -0.0000,-48.5208 h -48.5208 l -0.0000,48.5208 Z"/></g><g stroke-linejoin="miter" stroke-opacity="1.0" fill-opacity="1.0" stroke="rgb(255,255,255)" stroke-width="9.256394417268465" fill="rgb(169,169,169)" stroke-linecap="butt" stroke-miterlimit="10.0"><path d="M 97.0417,194.0833 l -0.0000,-48.5208 h -48.5208 l -0.0000,48.5208 Z"/></g><g stroke-linejoin="miter" stroke-opacity="1.0" fill-opacity="1.0" stroke="rgb(255,255,255)" stroke-width="9.256394417268465" fill="rgb(211,211,211)" stroke-linecap="butt" stroke-miterlimit="10.0"><path d="M 97.0417,145.5625 l -0.0000,-48.5208 h -48.5208 l -0.0000,48.5208 Z"/></g><g stroke-linejoin="miter" stroke-opacity="1.0" fill-opacity="1.0" stroke="rgb(255,255,255)" stroke-width="9.256394417268465" fill="rgb(211,211,211)" stroke-linecap="butt" stroke-miterlimit="10.0"><path d="M 97.0417,97.0417 l -0.0000,-48.5208 h -48.5208 l -0.0000,48.5208 Z"/></g><g stroke-linejoin="miter" stroke-opacity="1.0" fill-opacity="1.0" stroke="rgb(255,255,255)" stroke-width="9.256394417268465" fill="rgb(211,211,211)" stroke-linecap="butt" stroke-miterlimit="10.0"><path d="M 97.0417,48.5208 l -0.0000,-48.5208 h -48.5208 l -0.0000,48.5208 Z"/></g><g stroke-linejoin="miter" stroke-opacity="1.0" fill-opacity="1.0" stroke="rgb(255,255,255)" stroke-width="9.256394417268465" fill="rgb(169,169,169)" stroke-linecap="butt" stroke-miterlimit="10.0"><path d="M 48.5208,388.1667 l -0.0000,-48.5208 h -48.5208 l -0.0000,48.5208 Z"/></g><g stroke-linejoin="miter" stroke-opacity="1.0" fill-opacity="1.0" stroke="rgb(255,255,255)" stroke-width="9.256394417268465" fill="rgb(169,169,169)" stroke-linecap="butt" stroke-miterlimit="10.0"><path d="M 48.5208,339.6458 l -0.0000,-48.5208 h -48.5208 l -0.0000,48.5208 Z"/></g><g stroke-linejoin="miter" stroke-opacity="1.0" fill-opacity="1.0" stroke="rgb(255,255,255)" stroke-width="9.256394417268465" fill="rgb(211,211,211)" stroke-linecap="butt" stroke-miterlimit="10.0"><path d="M 48.5208,291.1250 l -0.0000,-48.5208 h -48.5208 l -0.0000,48.5208 Z"/></g><g stroke-linejoin="miter" stroke-opacity="1.0" fill-opacity="1.0" stroke="rgb(255,255,255)" stroke-width="9.256394417268465" fill="rgb(211,211,211)" stroke-linecap="butt" stroke-miterlimit="10.0"><path d="M 48.5208,242.6042 l -0.0000,-48.5208 h -48.5208 l -0.0000,48.5208 Z"/></g><g stroke-linejoin="miter" stroke-opacity="1.0" fill-opacity="1.0" stroke="rgb(255,255,255)" stroke-width="9.256394417268465" fill="rgb(211,211,211)" stroke-linecap="butt" stroke-miterlimit="10.0"><path d="M 48.5208,194.0833 l -0.0000,-48.5208 h -48.5208 l -0.0000,48.5208 Z"/></g><g stroke-linejoin="miter" stroke-opacity="1.0" fill-opacity="1.0" stroke="rgb(255,255,255)" stroke-width="9.256394417268465" fill="rgb(211,211,211)" stroke-linecap="butt" stroke-miterlimit="10.0"><path d="M 48.5208,145.5625 l -0.0000,-48.5208 h -48.5208 l -0.0000,48.5208 Z"/></g><g stroke-linejoin="miter" stroke-opacity="1.0" fill-opacity="1.0" stroke="rgb(255,255,255)" stroke-width="9.256394417268465" fill="rgb(211,211,211)" stroke-linecap="butt" stroke-miterlimit="10.0"><path d="M 48.5208,97.0417 l -0.0000,-48.5208 h -48.5208 l -0.0000,48.5208 Z"/></g><g stroke-linejoin="miter" stroke-opacity="1.0" fill-opacity="1.0" stroke="rgb(255,255,255)" stroke-width="9.256394417268465" fill="rgb(211,211,211)" stroke-linecap="butt" stroke-miterlimit="10.0"><path d="M 48.5208,48.5208 l -0.0000,-48.5208 h -48.5208 l -0.0000,48.5208 Z"/></g><g stroke-linejoin="miter" stroke-opacity="1.0" fill-opacity="0.0" stroke="rgb(0,0,0)" stroke-width="9.256394417268465" fill="rgb(0,0,0)" stroke-linecap="butt" stroke-miterlimit="10.0"><path d="M 0.0000,291.1250 h 0.0000 h 48.5208 v -145.5625 h 48.5208 v 194.0833 h 48.5208 v -48.5208 h 48.5208 v -48.5208 h 48.5208 v -48.5208 h 48.5208 v -145.5625 h 48.5208 h 0.0000 h 48.5208 v 48.5208 h 48.5208 "/></g><g stroke-linejoin="miter" stroke-opacity="1.0" fill-opacity="0.0" stroke="rgb(0,0,255)" stroke-width="9.256394417268465" fill="rgb(0,0,0)" stroke-linecap="butt" stroke-miterlimit="10.0"><path d="M 0.0000,291.1250 h 0.0000 h 48.5208 "/></g></svg>